<?xml version="1.0" encoding="utf-8"?>
<svg xmlns="http://www.w3.org/2000/svg" xmlns:xlink="http://www.w3.org/1999/xlink" x="0px" y="0px"
	 viewBox="0 0 512 512" style="enable-background:new 0 0 512 512;" xml:space="preserve">
	<g>
		<path d="M217.6,157.7c23.2-5.9,37.1-29.5,31.2-52.7c-5.9-23.2-29.5-37.1-52.7-31.2c-23.2,5.9-37.1,29.5-31.2,52.7
		C170.8,149.7,194.4,163.7,217.6,157.7z M258.8,285.3l-2.9,30.6c5.2,3.4,9.9,7.3,14.1,11.5c17.3,17.3,26.8,40.4,26.8,64.8
		c0,24.5-9.5,47.5-26.8,64.8c-17.3,17.3-40.4,26.8-64.8,26.9c-24.5,0-47.5-9.6-64.8-26.9c-11-11-18.9-24.5-23.2-39.4l-15.6,34.5
		c21.4,37,61,59.9,103.6,59.9c66,0,119.8-53.7,119.8-119.8C324.9,347.3,299,305.5,258.8,285.3z M230.2,328.9l11-115.2
		c1.8-19.4-9.9-36.5-29.4-38.2c-12.5-1.1-25.8,5.2-33.6,13.4l-54.1,53.2l-56.6,4.8c-9.1,0.8-16.1,8.4-16.1,17.5v1.1
		c0,9.7,7.9,17.6,17.6,17.6h58.3c5.5,0,10.8-1.8,15.2-5l23.6-17.4l-5.1,56.2L87,322.2c-21.5,0.8-30.9,9.5-39,28.7l-34.9,95.8
		c-5.3,11.7,0,25.6,11.7,30.9c11.8,5.3,25.6,0,30.9-11.7l39.3-84h75.4C208.4,381.5,226.3,365.6,230.2,328.9z M425.3,85.3
		c23.2-5.9,37.1-29.5,31.2-52.7c-5.9-23.2-29.5-37.1-52.7-31.2c-23.2,5.9-37.1,29.5-31.2,52.7C378.6,77.2,402.2,91.2,425.3,85.3z
		 M497.6,292l-19.7-153.1c-5-38.1-49.2-47.2-74.3-24.1L342.4,170l-58.6,22c-9,3.3-13.9,13.1-11,22.3l0.2,0.7
		c2.8,9,12.1,14.3,21.3,12.2l45.1-12.4c9.7-2.2,18.8-6.2,27.1-11.8l22.1-13.5l12.4,96.4c0.7,5.3-9,28.9-10.5,34.6L341,474.8
		c-3.9,12.1,2.7,25,14.8,29l0.8,0.3c11.4,3.8,23.8-1.9,28.4-12.9l55.6-134.7L454,491c1.1,12.6,12.2,22,24.9,21l0.9-0.1
		c12-1,21.2-11,21.2-23L497.6,292z"></path>
	</g>
</svg>
