<!--?xml version="1.0" encoding="utf-8"?-->
<!-- Generator: Adobe Illustrator 15.1.0, SVG Export Plug-In . SVG Version: 6.00 Build 0)  -->

<svg xmlns="http://www.w3.org/2000/svg" xmlns:xlink="http://www.w3.org/1999/xlink" x="0px" y="0px" width="512px" height="512px" viewBox="0 0 512 512" style="width: 256px; height: 256px; opacity: 1;" xml:space="preserve">
<g>
	<path class="SvgIcon" d="M256,0L8,138.672V512h200V366.438h96V512h200V138.672L256,0z M131.469,414.188H91.406v-47.766h40.063V414.188z
		 M131.469,308.188H91.406v-47.766h40.063V308.188z M276.031,308.188h-40.063v-47.766h40.063V308.188z M318.656,166.813h-40.281
		v40.281h-44.75v-40.281h-40.281v-44.766h40.281V81.75h44.75v40.297h40.281V166.813z M380.453,260.422h37.563v47.766h-37.563
		V260.422z M420.594,414.188h-40.063v-47.766h40.063V414.188z"></path>
</g>
</svg>
