<?xml version="1.0" encoding="utf-8"?>
<!-- Generator: Adobe Illustrator 21.1.0, SVG Export Plug-In . SVG Version: 6.00 Build 0)  -->
<svg version="1.1" id="_x32_" xmlns="http://www.w3.org/2000/svg" xmlns:xlink="http://www.w3.org/1999/xlink" x="0px" y="0px"
	 viewBox="0 0 512 512" style="enable-background:new 0 0 512 512;" xml:space="preserve">
<style type="text/css">
	.st0{fill:#C62828;}
</style>
<g>
	<path class="st0" d="M256,240c-6.1,0-11,4.8-11,10.8c0,6.1,3.1,7.4,6.5,11.4c4.1,4.8,4.5,9.8,4.5,9.8s0.5-5,4.5-9.8
		c3.4-4,6.5-5.3,6.5-11.4C267,244.8,262.1,240,256,240z M256,254.5c-2.1,0-3.8-1.7-3.8-3.7s1.7-3.7,3.8-3.7c2.1,0,3.8,1.7,3.8,3.7
		S258.1,254.5,256,254.5z"/>
</g>
</svg>
