<!--?xml version="1.0" encoding="utf-8"?-->
<!-- Generator: Adobe Illustrator 18.1.1, SVG Export Plug-In . SVG Version: 6.00 Build 0)  -->

<svg version="1.1" xmlns="http://www.w3.org/2000/svg" xmlns:xlink="http://www.w3.org/1999/xlink" x="0px" y="0px" viewBox="0 0 512 512" xml:space="preserve">
<g>
	<path d="M254.962,145.192c-38.209,36.682-47.168,80.782-47.168,80.782s-78.16,49.137-47.591,157.646h91.854
		l13.549,102.607C267.553,500.985,280.129,512,295.004,512h5.189c16.379,0,29.656-13.273,29.656-29.652V383.62h12.053
		c0,0,0-189.14,0-233.837C341.902,114.63,290.042,111.517,254.962,145.192z"></path>
	<path d="M305.398,0c-29.542,0-53.493,23.955-53.493,53.493c0,29.546,23.951,53.493,53.493,53.493
		c29.542,0,53.49-23.947,53.49-53.493C358.888,23.955,334.94,0,305.398,0z"></path>
</g>
</svg>
