<!--?xml version="1.0" encoding="utf-8"?-->
<!-- Generator: Adobe Illustrator 18.1.1, SVG Export Plug-In . SVG Version: 6.00 Build 0)  -->

<svg version="1.1" id="_x32_" xmlns="http://www.w3.org/2000/svg" xmlns:xlink="http://www.w3.org/1999/xlink" x="0px" y="0px" viewBox="0 0 512 512" xml:space="preserve">
<g>
	<path d="M231.685,96.225c26.583,0,48.112-21.55,48.112-48.106c0-26.59-21.529-48.12-48.112-48.12
		s-48.12,21.53-48.12,48.12C183.566,74.675,205.102,96.225,231.685,96.225z"></path>
	<path d="M363.156,219.647h-30.329l-9.694-57.896c-8.283-22.989-21.288-42.736-49.758-42.736h-42.178h-42.185
		c-23.313,0-48.678,25.364-48.678,48.684v161.716c0,11.657,9.446,21.11,21.103,21.11c5.735,0,0,0,14.726,0l8.021,137.921
		c0,12.4,10.066,22.459,22.473,22.459c4.214,0,11.292,0,18.92,0V394.452c0-2.823,2.292-5.11,5.116-5.11h1.942h51.328l2.058-35.451
		c-3.146-2.885-6.073-6.169-8.737-9.825c-10.142-13.928-15.726-32.091-15.746-51.176V209.43h22.583l1.722,10.217h-14.087v73.23
		c0.02,17.357,5.081,33.22,13.777,45.166c4.358,5.962,9.653,10.961,15.781,14.507c3.849,2.245,8.048,3.883,12.455,4.799v146.707
		c0,4.385,3.56,7.945,7.946,7.945c4.385,0,7.945-3.56,7.945-7.945V357.348c4.406-0.916,8.606-2.554,12.455-4.792
		c9.184-5.343,16.51-13.874,21.598-24.174c5.081-10.314,7.952-22.487,7.952-35.506v-73.23H363.156z M289.692,236.68
		c2.341,11.092,5.522,26.177,8.51,40.305h-9.412V236.68H289.692z M354.639,292.876c0.013,13.998-4.2,26.521-10.5,35.121
		c-3.14,4.31-6.775,7.628-10.568,9.818c-3.801,2.197-7.725,3.305-11.856,3.319c-4.139-0.014-8.056-1.122-11.864-3.319
		c-5.68-3.27-11.016-9.143-14.865-16.964c-3.849-7.8-6.203-17.474-6.197-27.974v-2.266h12.29c0.158,0.751,0.324,1.536,0.482,2.266
		c5.48,25.915,38.942,22.294,42.439,0.874l0.048-3.14h10.59V292.876z M354.639,276.986h-12.214l-6.748-40.305h18.962V276.986z"></path>
	<polygon points="278.869,476.941 280.604,447.026 247.363,476.941 	"></polygon>
	<polygon points="237.745,432.788 237.745,470.097 279.199,432.788 	"></polygon>
	<path d="M237.745,510.905c7.27,0,13.942,0,17.984,0c12.406,0,22.466-10.059,22.466-22.459l0.075-1.288h-40.525V510.905
		z"></path>
	<polygon points="237.745,422.57 282.029,422.57 283.372,399.56 237.745,399.56 	"></polygon>
</g>
</svg>
