<svg xmlns="http://www.w3.org/2000/svg" viewBox="0 0 512 512"><defs><style>.cls-1{fill:#fff;}</style></defs><title>insta_logo</title><g id="レイヤー_2" data-name="レイヤー 2"><g id="レイヤー_1-2" data-name="レイヤー 1"><path class="cls-1" d="M256,220.5A45.5,45.5,0,1,0,301.5,266,45.5,45.5,0,0,0,256,220.5Zm-23.62,9a43.35,43.35,0,0,1,47.24,0Z"/><rect class="cls-1" x="309.5" y="172.5" width="34" height="34" rx="8.02" ry="8.02"/><path class="cls-1" d="M256,0C114.61,0,0,114.61,0,256S114.61,512,256,512,512,397.39,512,256,397.39,0,256,0ZM364.5,328.25a27.25,27.25,0,0,1-27.25,27.25H174.75a27.25,27.25,0,0,1-27.25-27.25V183.75a27.25,27.25,0,0,1,27.25-27.25H337.25a27.25,27.25,0,0,1,27.25,27.25Z"/><path class="cls-1" d="M334.77,229.5H313.92a68.42,68.42,0,0,0-115.85,0H177.23A17.25,17.25,0,0,0,160,246.75v81.5a17.25,17.25,0,0,0,17.25,17.25H334.77A17.25,17.25,0,0,0,352,328.25v-81.5A17.25,17.25,0,0,0,334.77,229.5ZM256,332.5A66.5,66.5,0,1,1,322.5,266,66.5,66.5,0,0,1,256,332.5Z"/></g></g></svg>