<svg xmlns="http://www.w3.org/2000/svg" viewBox="0 0 186.25 73.8"><defs><style>.cls-1{fill:#4e342e;}</style></defs><title>logo</title><g id="レイヤー_2" data-name="レイヤー 2"><g id="レイヤー_1-2" data-name="レイヤー 1"><path class="cls-1" d="M5.92,47q-1.12-2.84-2.14-5.73A17.74,17.74,0,0,1,3,37.93a3,3,0,0,0-.25.46,9.12,9.12,0,0,1-1.23,1.74c-.42.4-.74.49-1,.25a3,3,0,0,1-.53-1.55,5.8,5.8,0,0,1,0-2A12.52,12.52,0,0,1,2.6,32.34a31.27,31.27,0,0,1,5.25-5.12,24.38,24.38,0,0,1,3.68-2.41,12.55,12.55,0,0,1,3.22-1.21,5.36,5.36,0,0,1,2.51,0,2.75,2.75,0,0,1,1.61,1.14,4.36,4.36,0,0,1,.76,2.54,8,8,0,0,1-.83,3.1,13.05,13.05,0,0,1-2,3.17,5.07,5.07,0,0,1-.44.45l0,.06c4.05-2.44,6.83-2.4,8.23-.28a4.54,4.54,0,0,1,.63,1.5,6.93,6.93,0,0,1,.16,1.85,8.29,8.29,0,0,1-.33,2,29.16,29.16,0,0,1-1.77,4.63,39.22,39.22,0,0,1-2.5,4.53,15.49,15.49,0,0,1-2.61,3.23A14.78,14.78,0,0,1,16,53.13,7.67,7.67,0,0,1,14,54a1.28,1.28,0,0,1-1.26-.16,1.44,1.44,0,0,1-.4-.88,5.7,5.7,0,0,1,.15-1.59h-.1a3.47,3.47,0,0,1-.61.8,2.72,2.72,0,0,1-1.55.82,1.64,1.64,0,0,1-1.42-.51,10.47,10.47,0,0,1-1.21-2Q6.7,48.89,5.92,47ZM11,39.59q.07.21.17.45l.18.46c.59,1.67,1,3.06,1.34,4.17a16.59,16.59,0,0,1,.54,3,8.29,8.29,0,0,1-.08,1.95c1.38-.75,2.35-1.26,2.91-1.6a11.85,11.85,0,0,0,1.56-1.11A6.63,6.63,0,0,0,19,45.5a5.08,5.08,0,0,0,.69-1.69,7.89,7.89,0,0,0,.1-2.81,5,5,0,0,0-.91-2.36,2.65,2.65,0,0,0-2.2-1,4,4,0,0,0-1.38.23,9.34,9.34,0,0,0-1.72.88,10.52,10.52,0,0,1-1.41.74A3.08,3.08,0,0,1,11,39.59ZM8.32,31.42q1.09,3.52,2.3,7a3.87,3.87,0,0,0,.39-.29,5.6,5.6,0,0,0,1.44-2.17,11,11,0,0,0,.93-3.32,3.25,3.25,0,0,0-.49-2.29c-.86-1.14-2.1-1.1-3.71.17A3.11,3.11,0,0,0,8.32,31.42Z"/><path class="cls-1" d="M36.94,28.24l-.18.34c0,.06-.29.49-.73,1.29-.84,1.57-1.52,2.84-2.06,3.8A23.73,23.73,0,0,1,32.58,36a4.32,4.32,0,0,1-1.09,1.14,2,2,0,0,1-1.7.25,2.7,2.7,0,0,1-1.48-1.19,16.3,16.3,0,0,1-1.79-4,25.19,25.19,0,0,1-1-5.17,5.62,5.62,0,0,1,1.13-4.51,4.9,4.9,0,0,1,1.29-1,3.22,3.22,0,0,1,2.1-.48,1.92,1.92,0,0,1,1.46,1,4.24,4.24,0,0,1,.42,1.42A12.68,12.68,0,0,1,32,25.44L32,26a11.48,11.48,0,0,0,.26,3.82q.18.31.44.16a1.41,1.41,0,0,0,.48-.65c.16-.34.37-.92.65-1.73a19.65,19.65,0,0,1,.78-2.11l.36-.84.31-.76a21.34,21.34,0,0,1,1.87-3.46,4.47,4.47,0,0,1,1.59-1.53c1-.45,1.74,0,2.33,1.32q.19.41.54,1.52A37.75,37.75,0,0,0,43,25.27l.26.51.28.6q.55.9.83,1.39l.48.76c.13.29-.05.67-.54,1.16A6.76,6.76,0,0,1,42.4,31a4.79,4.79,0,0,1-2,.53A2.84,2.84,0,0,1,38.76,31a3.89,3.89,0,0,1-1.27-1.49q-.07-.12-.2-.45T36.94,28.24ZM27.81,18a2.66,2.66,0,0,1-1.24.39.79.79,0,0,1-.76-.37,3.28,3.28,0,0,1-.25-1.51,3.82,3.82,0,0,1,.28-1.63A4.5,4.5,0,0,1,27,13.55a11.34,11.34,0,0,1,2-1.34c.84-.43,1.4-.37,1.67.18a3.12,3.12,0,0,1-.3,2.91A6.29,6.29,0,0,1,27.81,18Zm7.52-3.12c-1.5.72-2.47.67-2.9-.2a2.71,2.71,0,0,1-.26-1.27,2.82,2.82,0,0,1,.29-1.27A5.41,5.41,0,0,1,35,10.19c1.22-.56,1.94-.58,2.17-.07a2.17,2.17,0,0,1,.07,1A10.13,10.13,0,0,1,37,12.52a5.17,5.17,0,0,1-.45,1.25A2.49,2.49,0,0,1,35.33,14.84Z"/><path class="cls-1" d="M51,11.17a4.17,4.17,0,0,1,2.5-.1,2,2,0,0,1,1.36,1.37,3.32,3.32,0,0,1-.07,2,5.66,5.66,0,0,1-1.1,2A3.94,3.94,0,0,1,52,17.68c-.37.13-.59.09-.67-.13a1.65,1.65,0,0,1,0-.59,4,4,0,0,0-.08-2.49q-.22-.63-.41-.57c-.17.06-.36.32-.55.79a5,5,0,0,0-.35,1.54,14.28,14.28,0,0,0,0,2.75,8.5,8.5,0,0,0,.44,2.29,3.19,3.19,0,0,0,.94,1.43,1.18,1.18,0,0,0,1.2.21,3.94,3.94,0,0,0,1.38-1.09,11.53,11.53,0,0,0,1.44-2c.16-.35.33-.55.52-.61a.38.38,0,0,1,.55.27,4.73,4.73,0,0,1-.58,3.86,10.64,10.64,0,0,1-2,2.46,7.64,7.64,0,0,1-2.33,1.54,5.57,5.57,0,0,1-3.71.23,3.74,3.74,0,0,1-2.48-2.15,8.37,8.37,0,0,1-.61-3.81,13.67,13.67,0,0,1,1-4.46A14.42,14.42,0,0,1,48.26,13a6.3,6.3,0,0,1,2.65-1.83Z"/><path class="cls-1" d="M67.75,2.62l0-.25c-.07-.38-.18-.55-.31-.53s-.41.29-.69.77A8.06,8.06,0,0,0,66,4.19a26.68,26.68,0,0,0-1,4.45,26.13,26.13,0,0,0-.25,4.52q0,.86.11,1.85l.11,0a36.19,36.19,0,0,1,2.24-2.84,24,24,0,0,1,2.08-2,6.5,6.5,0,0,1,2.89-1.6,1.59,1.59,0,0,1,1.29.26,1.77,1.77,0,0,1,.63,1.19,5.86,5.86,0,0,1,0,1.36,14.94,14.94,0,0,0,.11,3.13,7.26,7.26,0,0,0,.3,1.19,20.07,20.07,0,0,0,.91,1.9,9.49,9.49,0,0,1,.6,1.2c0,.14-.15.35-.5.61a7.34,7.34,0,0,1-3.21,1.66A2.52,2.52,0,0,1,70,20.43a4.86,4.86,0,0,1-1.39-2.67,10.56,10.56,0,0,1-.19-1.7l-.1,0c-1.39,1.85-2.26,3.12-2.7,3.77-1.66,2.24-3,3.53-4,3.84a1.5,1.5,0,0,1-1.49-.52A4.93,4.93,0,0,1,58.91,21a18.4,18.4,0,0,1,0-8.4,36.52,36.52,0,0,1,1-4.07,27.9,27.9,0,0,1,1.34-3.44,10.68,10.68,0,0,1,1.17-1.88,9.73,9.73,0,0,1,1.4-1.46,7.45,7.45,0,0,1,1.57-1A7.12,7.12,0,0,1,67.14.15a5.7,5.7,0,0,1,3.74.37A3.12,3.12,0,0,1,72.66,2.9a4.52,4.52,0,0,1-.43,2.49,10.6,10.6,0,0,1-1.82,2.76,12.14,12.14,0,0,1-1.79,1.64,4.69,4.69,0,0,1-1.64.9.58.58,0,0,1-.36,0,.33.33,0,0,1-.21-.24,2.75,2.75,0,0,1,.28-1.1A15.66,15.66,0,0,0,67.39,7a16.5,16.5,0,0,0,.41-2.49A7.32,7.32,0,0,0,67.75,2.62Z"/><path class="cls-1" d="M83.13,15.26c.19.61.68.88,1.49.82a7.67,7.67,0,0,0,3.44-1.6,4.34,4.34,0,0,1,1.68-.87,2.14,2.14,0,0,1,1,.22c.32.16.48.33.49.5s-.17.44-.51.75a22,22,0,0,1-2.14,1.7,23.24,23.24,0,0,1-2.29,1.44,16.07,16.07,0,0,1-2.19,1,8.29,8.29,0,0,1-2,.49,5.51,5.51,0,0,1-3.63-.7,3.75,3.75,0,0,1-1.74-2.77,8.42,8.42,0,0,1,.28-3.28,12.47,12.47,0,0,1,1.57-3.58,11.69,11.69,0,0,1,3.41-3.42A10.6,10.6,0,0,1,87.29,4.1a4.12,4.12,0,0,1,2.94.81,3.21,3.21,0,0,1,1.1,2.53,5.33,5.33,0,0,1-.74,2.66,10.64,10.64,0,0,1-2.24,2.73A13.44,13.44,0,0,1,86,14.62a5,5,0,0,1-2,.75A2.17,2.17,0,0,1,83.13,15.26ZM83,14.77a5.53,5.53,0,0,0,1.2-1.07,7.7,7.7,0,0,0,1.35-2.43,8.87,8.87,0,0,0,.55-2,8.89,8.89,0,0,0,.13-2q-.05-.86-.5-.83c-.41,0-1,.8-1.73,2.33a15.57,15.57,0,0,0-1,2.74,7,7,0,0,0-.25,2.3A4.4,4.4,0,0,0,83,14.77Z"/><path class="cls-1" d="M98.86,14.45l-.08.31a5.86,5.86,0,0,1-.1.76,8.49,8.49,0,0,1-.24,1.24,2.22,2.22,0,0,1-.4.79,4.8,4.8,0,0,1-.69.66,4.22,4.22,0,0,1-2.6,1,1.82,1.82,0,0,1-1.55-.68,3.85,3.85,0,0,1-.53-2.21,17.17,17.17,0,0,1,.28-3,22.38,22.38,0,0,1,.77-3.22l.15-.41A1.46,1.46,0,0,1,94,9.3a16.37,16.37,0,0,1,1.32-3.14,5.19,5.19,0,0,1,1.49-1.63,3.12,3.12,0,0,1,1.75-.44,1.55,1.55,0,0,1,1.64,1.41,4,4,0,0,0,.55-.41,5,5,0,0,1,.92-.68,1.44,1.44,0,0,1,.74-.14c1.13.07,1.63,1,1.5,2.76a10.55,10.55,0,0,1-.59,2.78,8.07,8.07,0,0,1-1.1,2.15c-.41.55-.8.81-1.17.79s-.58-.68-.51-2a7.14,7.14,0,0,0-.06-1.62,2,2,0,0,0-.41-.93,9.5,9.5,0,0,0-.9,4C99,13.38,98.91,14.14,98.86,14.45Z"/><path class="cls-1" d="M115.31,14.44l-1,1.26c-.91,1.13-1.71,2-2.41,2.75a7.27,7.27,0,0,1-1.83,1.44,2.84,2.84,0,0,1-1.61.29,2,2,0,0,1-1.39-.8,11.36,11.36,0,0,1-1.61-5,22.91,22.91,0,0,1-.25-5,6.09,6.09,0,0,1,.69-2.57,2.89,2.89,0,0,1,1.6-1.29,6,6,0,0,1,2.65-.17,2.42,2.42,0,0,1,1.19.38,1.33,1.33,0,0,1,.39,1,12.07,12.07,0,0,1-.15,2.12,38.17,38.17,0,0,0-.35,4.89c0,.09,0,.51,0,1.26h.09l.25-.34.19-.26.17-.24.22-.31c.83-1.14,1.73-2.46,2.72-3.95a19.79,19.79,0,0,1,2.33-3.06,2.9,2.9,0,0,1,.42-.24,5.28,5.28,0,0,1,2.76,0,2.71,2.71,0,0,1,1.3.55,1.41,1.41,0,0,1,.42,1,10.45,10.45,0,0,1-.25,2.11,23,23,0,0,0-.37,3.27q-.13,2.12-.11,3.81c0,.38,0,1.12.06,2.21l.09,0a16.71,16.71,0,0,0,.89-1.45,24.13,24.13,0,0,0,1.85-5.44l.16-.68a5,5,0,0,1,.66-1.67,2.94,2.94,0,0,1,1.16-1A5.79,5.79,0,0,1,128,8.81a4.41,4.41,0,0,1,1.64.08,1.29,1.29,0,0,1,1,.8,3,3,0,0,1-.12,1.68,22,22,0,0,1-3,5.8,32.19,32.19,0,0,1-4.25,5.1,10.44,10.44,0,0,1-1.36,1.11,3.16,3.16,0,0,1-1.2.51,3.22,3.22,0,0,1-1.25-.05c-1.6-.35-2.72-1.54-3.43-3.6a13,13,0,0,1-.49-2.11,19.72,19.72,0,0,1-.2-2.64,4.74,4.74,0,0,1,0-1Z"/><path class="cls-1" d="M140.43,23.18l-.37.09c-.07,0-.55.1-1.44.29-1.72.38-3.11.7-4.18.93a23.33,23.33,0,0,1-2.6.43,4.14,4.14,0,0,1-1.54-.08A1.91,1.91,0,0,1,129,23.71a2.75,2.75,0,0,1,0-1.9,16.69,16.69,0,0,1,1.9-4,25.48,25.48,0,0,1,3.24-4.14,5.54,5.54,0,0,1,4.11-2.09,4.73,4.73,0,0,1,1.58.31,3.14,3.14,0,0,1,1.7,1.28,1.93,1.93,0,0,1,.15,1.78,4.28,4.28,0,0,1-.81,1.25,12.7,12.7,0,0,1-1.52,1.38l-.37.34a11.51,11.51,0,0,0-2.71,2.69c-.08.23,0,.37.16.44a1.38,1.38,0,0,0,.79-.06c.36-.1.92-.32,1.72-.64a19.67,19.67,0,0,1,2.09-.78l.87-.28.77-.26a21,21,0,0,1,3.83-.83,4.44,4.44,0,0,1,2.19.22c1,.44,1.13,1.32.51,2.63q-.19.41-.81,1.4a37.68,37.68,0,0,0-1.82,3.36l-.22.53c-.07.16-.16.36-.27.61q-.33,1-.52,1.54l-.26.86c-.13.28-.54.39-1.23.34a6.75,6.75,0,0,1-2.18-.59A4.73,4.73,0,0,1,140.21,28a2.83,2.83,0,0,1-.72-1.57,3.91,3.91,0,0,1,.31-1.93c0-.09.11-.24.22-.44S140.26,23.52,140.43,23.18Z"/><path class="cls-1" d="M153.94,29.75l-.22.24a5.85,5.85,0,0,1-.43.63,8.27,8.27,0,0,1-.78,1,2.19,2.19,0,0,1-.72.52,4.91,4.91,0,0,1-.93.27,4.4,4.4,0,0,1-2.83-.3,1.88,1.88,0,0,1-1.11-1.33,3.79,3.79,0,0,1,.51-2.22A16.82,16.82,0,0,1,149,26a21.92,21.92,0,0,1,2.15-2.52l.32-.29a1.44,1.44,0,0,1,.28-.3,16.09,16.09,0,0,1,2.62-2.2,5.21,5.21,0,0,1,2.09-.77,3.25,3.25,0,0,1,1.8.42,1.58,1.58,0,0,1,.87,2,4.15,4.15,0,0,0,.69-.11,5.11,5.11,0,0,1,1.15-.18,1.51,1.51,0,0,1,.74.22c1,.59,1.05,1.66.14,3.17a10.27,10.27,0,0,1-1.79,2.21,8,8,0,0,1-2,1.41,1.58,1.58,0,0,1-1.43.16q-.54-.31.42-2a7,7,0,0,0,.67-1.48,2,2,0,0,0,0-1,9.27,9.27,0,0,0-2.61,3.12Q154.22,29.37,153.94,29.75Z"/><path class="cls-1" d="M176.5,44.6q-3.45-.13-6.8,0a10,10,0,0,1-1.95-.11,2.94,2.94,0,0,1-1.23-.57,2.72,2.72,0,0,1-1.07-1.71,2.31,2.31,0,0,1,.42-1.86,4.66,4.66,0,0,1,1-1A17.8,17.8,0,0,1,169,38.09a5.71,5.71,0,0,1,.53-.27l.39-.18,0-.1a42.16,42.16,0,0,0-4.92.56c-1.36.22-2.4.38-3.14.46a9.54,9.54,0,0,1-1.86,0,2.67,2.67,0,0,1-1.2-.36,2.4,2.4,0,0,1-1.15-1.68,3.22,3.22,0,0,1,.55-2.21,14.55,14.55,0,0,1,4.53-3.78,24.4,24.4,0,0,1,4.73-2.42,4,4,0,0,1,3.57.48A3.69,3.69,0,0,1,172.26,30a1.17,1.17,0,0,1,0,1.27,10,10,0,0,1-3,2.22q-.87.47-1.89,1.13l0,.1c.64-.07,1.69-.22,3.18-.41A28.58,28.58,0,0,1,176.2,34a6,6,0,0,1,3.58,1.18,2.72,2.72,0,0,1,.81,1.15,2.81,2.81,0,0,1,.16,1.4,2.3,2.3,0,0,1-.54,1.2A14,14,0,0,1,177,40.73l-.89.43-.56.26,0,.11.63,0,.61,0,.62.05c.45,0,1.6.08,3.47.21a13.65,13.65,0,0,1,2.86.31,3.35,3.35,0,0,1,1.51.8,2.65,2.65,0,0,1,.95,1.85,2.62,2.62,0,0,1-.91,1.86,15.77,15.77,0,0,1-2,1.55q-1.57,1.17-2.41,1.89t-1.16,1c-.15.16-.34.37-.55.63a10.85,10.85,0,0,0-.65.89q-.33.49-.69,1.12c-.3.51-.54.9-.74,1.16a1.63,1.63,0,0,1-1.36,0,4.24,4.24,0,0,1-1.55-1,4.39,4.39,0,0,1-1.29-2.78,4.94,4.94,0,0,1,0-1.41,3.88,3.88,0,0,1,.5-1.27A11,11,0,0,1,174.68,47c.35-.4,1.14-1.17,2.36-2.31l0-.1Z"/></g><g id="レイヤー_2-2" data-name="レイヤー 2"><path class="cls-1" d="M124.28,73.05V37.42a7.44,7.44,0,0,1-.78-.17V35.06L123.1,35a22.9,22.9,0,0,1-4.33-1.46c-3.28-1.32-7.36-3-11.93-3a18,18,0,0,0-1.83.09c-5.43.55-7.47,1.69-9,2.52a5.44,5.44,0,0,1-1.93.78,3.49,3.49,0,0,1-.58-.14h0a7.92,7.92,0,0,1-1.34-.64c-1.49-.83-3.54-2-9-2.52a18,18,0,0,0-1.83-.09c-4.57,0-8.65,1.64-11.93,3A22.66,22.66,0,0,1,65.13,35l-.39.06v2.22c-.24.06-.48.11-.7.14v36a.36.36,0,0,0,.11.25.66.66,0,0,0,.47.12c3.87-.92,10.52-5.15,18.1-4.39,5.84.59,7.93,1.84,9.37,2.83a17,17,0,0,0,4.11,0c1.44-1,3.54-2.24,9.37-2.83,7.44-.75,14,3.31,17.88,4.33a.54.54,0,0,0,.6-.09C124.32,73.48,124.28,73.05,124.28,73.05Z"/></g></g></svg>