<?xml version="1.0" encoding="utf-8"?>
<svg xmlns="http://www.w3.org/2000/svg" xmlns:xlink="http://www.w3.org/1999/xlink" x="0px" y="0px"
	 viewBox="0 0 512 512" xml:space="preserve">
<path d="M110.5,411.8c-5.2,5.8-9.1,12.5-11.3,19.3c-1.5,4.8-2.3,9.5-2.3,13.9c0,2.7,0.3,5.2,0.8,7.7
	c0.4,1.8,1,3.5,1.8,5.1c0.6,1.2,1.3,2.3,2.2,3.4c1.3,1.5,2.8,2.9,4.7,3.8c1.8,0.9,4,1.4,6.1,1.4v-9.8c-0.5,0-0.8-0.1-1.1-0.2
	c-0.6-0.2-1-0.4-1.6-0.9c-0.4-0.4-0.8-0.8-1.2-1.5c-0.6-0.9-1.1-2.2-1.5-3.7c-0.4-1.5-0.6-3.3-0.6-5.3c0-3.3,0.6-7,1.8-10.9
	c1.1-3.5,3-7.2,5.3-10.7c3.5-5.2,8.4-10,14-13.4c2.8-1.7,5.8-3.1,8.9-4c3.1-0.9,6.4-1.4,9.8-1.4c4.5,0,8.8,0.9,12.8,2.5
	c6,2.4,11.5,6.5,15.8,11.3c4.3,4.8,7.6,10.4,9.3,15.7c1.2,3.8,1.8,7.6,1.8,10.9c0,2-0.2,3.8-0.6,5.4c-0.3,1.2-0.6,2.2-1,3
	c-0.3,0.6-0.6,1.1-1,1.5c-0.5,0.6-1,1-1.5,1.2c-0.5,0.2-1,0.4-1.8,0.4v9.8c1.3,0,2.5-0.2,3.8-0.5c2.1-0.6,4-1.7,5.5-3.1
	c1.2-1.1,2.1-2.3,2.9-3.6c1.2-2,2.1-4.2,2.6-6.6s0.8-4.9,0.8-7.5c0-4.4-0.7-9.1-2.3-13.9c-1.5-4.5-3.7-9-6.5-13.2
	c-4.3-6.3-10.1-12-17-16.2c-3.5-2.1-7.2-3.8-11.2-5c-4-1.2-8.2-1.9-12.6-1.9c-5.8,0-11.4,1.2-16.5,3.2
	C122.4,401.1,115.8,406,110.5,411.8z M165.6,452.1c-1.6,1.3-2.5,3.2-2.5,5.2v7.9c0,2,0.9,4,2.5,5.2c1.6,1.2,3.7,1.7,5.7,1.2l5.3-1.2
	v-18.3l-5.3-1.2C169.3,450.4,167.2,450.8,165.6,452.1z M121.7,450.8l-5.3,1.2v18.3l5.3,1.2c2,0.5,4.1,0,5.7-1.2
	c1.6-1.3,2.5-3.2,2.5-5.2v-7.9c0-2-0.9-4-2.5-5.2S123.7,450.4,121.7,450.8z M453.5,429.6c-2-7.5-4.9-14.3-8.4-20.3
	c-6.1-10.5-14.3-18.8-23.2-25.2c-6.7-4.9-13.9-8.9-21.2-12.3c-11-5.1-22.2-9.1-32.5-12.9c-10.3-3.8-19.8-7.5-27.2-11.9
	c-2.7-1.6-5.1-3.2-7.2-5c-3.1-2.6-5.6-5.4-7.3-8.5s-3-6.6-3.4-11c-0.3-3.1-0.5-6.1-0.5-8.9c0-8.3,1.2-15.5,2.8-22.8
	c4.6-5.2,8.9-11.4,12.9-18.9c4-7.5,7.8-16.2,11.6-26.6c2.4-1.1,4.9-2.4,7.3-4.1c5.5-3.7,10.7-8.8,15-15.6
	c4.3-6.8,7.8-15.3,10.2-25.8c0.7-2.9,1-5.8,1-8.6c0-5.9-1.4-11.6-3.8-16.7c-1.6-3.5-3.7-6.7-6.1-9.7c1.2-4.6,2.7-10.7,4.1-17.9
	c1.8-10,3.4-22,3.4-34.6c0-8.1-0.6-16.5-2.3-24.8c-1.2-6.2-3.1-12.4-5.6-18.3c-3.9-8.9-9.5-17.2-17.3-24.2
	c-7.2-6.4-16.3-11.5-27.2-14.8c-3.9-4.6-7.7-8.6-11.7-11.9c-3.4-2.9-7-5.3-10.5-7.3c-5.4-3-11-5-16.7-6.2s-11.6-1.6-17.6-1.6
	c-8.4,0-17.2,0.8-26.9,1.8c-3.7,0.4-6.8,0.8-9.4,1.3c-4,0.7-7,1.5-9.4,1.9c-1.2,0.2-2.2,0.4-3.3,0.5c-1,0.1-2,0.2-3.2,0.2
	c-1.5,0-3.3-0.1-5.6-0.5c-7.1-1-13.5-2.6-18.6-4.2c-2.5-0.8-4.7-1.5-6.4-2.2c-0.9-0.3-1.6-0.6-2.2-0.9c-0.6-0.2-1.1-0.5-1.3-0.6l0,0
	c-0.8-0.4-1.5-0.6-2.2-0.8C182.6,0,182,0,181.5,0c-1.1,0-1.8,0.2-2.5,0.3s-1.1,0.3-1.5,0.5c-0.8,0.3-1.4,0.7-2.1,1
	c-1.1,0.7-2.2,1.5-3.4,2.3c-2,1.6-4.2,3.5-6.6,5.8c-3.5,3.4-7.3,7.5-10.8,12c-1.7,2.2-3.3,4.6-4.8,7s-2.7,4.9-3.8,7.5
	c-5,12.9-8.2,24.8-10.3,35.8c-2,11-2.8,21-2.8,30.3c0,15.1,2.1,27.9,4.1,38.8c0,0.5,0,1,0,1.5c0.1,1,0.2,2.1,0.3,3.2
	c0.2,1.6,0.4,3.3,0.5,4.7c0.1,0.7,0.1,1.3,0.2,1.8c0,0.2,0,0.5,0,0.6l0,0.2v0v0v0.9l2,8.8c-2.9,3.1-5.3,6.6-7.2,10.5
	c-2.7,5.3-4.3,11.4-4.3,17.8c0,2.8,0.3,5.7,1,8.6c1.6,7,3.6,13.1,6.1,18.4c3.7,8,8.4,14.2,13.7,18.8c4,3.6,8.4,6.3,12.7,8.2
	c3.8,10.3,7.6,19.1,11.6,26.5c4,7.5,8.2,13.7,12.8,18.9c1.6,7.3,2.8,14.5,2.8,22.8c0,2.8-0.2,5.8-0.5,8.9c-0.3,3-1,5.6-1.9,7.9
	c-1.4,3.5-3.5,6.5-6.3,9.3c-2.8,2.8-6.4,5.4-10.7,7.8c-4.3,2.5-9.3,4.8-14.8,6.9c-9.6,3.9-20.5,7.5-31.5,12
	c-8.3,3.3-16.7,7.1-24.7,11.8c-6,3.5-11.8,7.6-17.1,12.5c-8,7.3-14.8,16.4-19.5,27.6c-4.8,11.2-7.4,24.5-7.4,40.2
	c0,2.2,0.5,4.3,1.2,6.3c0.7,1.8,1.7,3.5,2.8,5.1c2.2,3,5,5.6,8.5,8.2c6.1,4.5,14.1,8.7,24.5,12.6c15.6,5.9,36.6,11.2,63.6,15
	c27.1,3.8,60.3,6.2,100.3,6.2c34.7,0,64.3-1.8,89.2-4.8c18.7-2.2,34.7-5.2,48.3-8.5c10.2-2.5,19.1-5.2,26.7-8.1
	c5.7-2.2,10.7-4.4,15-6.7c3.2-1.7,6.1-3.5,8.7-5.3c3.8-2.8,6.9-5.6,9.2-8.8c1.2-1.6,2.1-3.3,2.8-5.2c0.7-1.8,1.1-3.9,1.1-6
	C457,447.8,455.8,438.2,453.5,429.6z M327.3,358.1l-50.2,78.3l-5.6-38.5l14.2-15.1l-9.2-15.4l38.9-20.5c1.1,1.4,2.2,2.7,3.4,4
	C321.4,353.7,324.3,356,327.3,358.1z M183.1,87.2c45.2,10,133.6-9.1,133.6-9.1s1,21.9,16,42c5.9,7.9,10.8,20.3,14.5,32
	c-1-1.8-3.3-2.5-6.8-3c-7.8-1-19.3-1.7-32.2-1.1c-38.5,1.9-35.7,5.4-50.8,5.4s-12.3-3.5-50.8-5.4c-13-0.6-24.5,0-32.2,1.1
	c-4,0.5-6.6,1.3-7.1,4c-0.2,1-0.5,2.1-1.9,2.7C169.6,139.9,181.5,119.5,183.1,87.2z M339.9,176.5c0,0.2-0.2,22.3-15.2,29.9
	c-5.1,2.6-11.5,4-18,4c-6.9,0-13.2-1.6-18.2-4.5c-5.5-3.2-9.3-8.1-11.1-14.3c-0.4-1.5-0.8-2.9-1.2-4.3c-1.2-4.3-4.4-16.2,2.4-21.5
	c4.4-3.4,18-5.6,31-5.6c11.8,0,23.9,1.6,27.4,5.3C339.3,167.9,340.2,172.2,339.9,176.5z M238.8,187.2c-0.4,1.4-0.8,2.9-1.2,4.3
	c-1.8,6.2-5.6,11.1-11.1,14.3c-5,3-11.3,4.5-18.2,4.5c-6.5,0-12.9-1.4-18-4c-15-7.5-15.2-29.6-15.2-29.9c-0.3-4.2,0.6-8.6,2.9-11
	c3.5-3.7,15.6-5.3,27.4-5.3c13,0,26.6,2.2,31,5.6C243.1,171,239.9,182.9,238.8,187.2z M188.5,264.1c-3.9-7.3-7.8-16.4-11.8-27.8
	l-1.3-3.7l-3.7-1.4c-2.6-0.9-5.1-2.2-7.5-3.8c-3.6-2.4-7-5.7-10.2-10.7s-6-11.6-8-20.5c-0.4-1.7-0.5-3.3-0.5-4.9
	c0-3.6,0.9-7,2.5-10.2c1.3-2.7,3.2-5.2,5.5-7.6c3.8,5.8,7,10.4,8.2,11.6c2.2,2.2,3.3,0.1,3.5-4c1.4,9.2,5.7,24.3,19.8,31.8
	c20.3,10.8,50.5,6.7,60.8-17.2c4.6-10.8,4.7-21.4,11.7-21.4c7,0,7.1,10.6,11.7,21.4c10.3,24,40.5,28,60.8,17.2
	c20.2-10.8,20.4-37.4,20.4-39.3c0-1,0.9-1.7,2.2-1.8c1.7,7.2,2.6,12.1,2.6,12.1s1.9-3.7,4.8-8.6c1.7,2,3.2,4.2,4.2,6.5
	c1.4,3.1,2.2,6.3,2.2,9.6c0,1.6-0.2,3.2-0.6,4.9c-1.3,6-3,10.9-5,15c-2.9,6.1-6.2,10.3-9.7,13.4c-3.5,3.1-7.1,5.1-11,6.5l-3.7,1.3
	l-1.3,3.7c-4,11.3-7.9,20.5-11.9,27.8c-3.9,7.3-7.8,12.8-11.9,17.1l-1.6,1.7l-0.5,2.3c-1.8,8.4-3.6,17.6-3.6,28.5
	c0,3.4,0.2,6.9,0.5,10.6c0.5,4.3,1.5,8.4,2.9,12.2c0.1,0.2,0.2,0.4,0.2,0.5l-50.9,26.8l-56.4-26.2c1.7-4.1,2.9-8.5,3.4-13.3
	c0.4-3.7,0.5-7.2,0.5-10.6c0-10.9-1.8-20.2-3.6-28.5l-0.5-2.3l-1.6-1.7C196.4,276.8,192.5,271.4,188.5,264.1z M188.1,355.6
	c2.9-2.4,5.6-5,8-8l43,20l-9.2,15.3l14.2,15.1l-5.2,36.2L184,358.6C185.4,357.6,186.8,356.6,188.1,355.6z M440.2,458.5
	c0,0.1-0.1,0.4-0.4,0.9c-0.6,1-1.9,2.5-4.1,4.3c-1.9,1.5-4.5,3.3-7.8,5.1c-5.7,3.1-13.5,6.4-23.3,9.5c-14.8,4.7-34.3,8.9-58.9,12
	c-24.6,3.1-54.4,5-89.7,5c-34.1,0-63-1.8-87.1-4.7c-18.1-2.2-33.5-5-46.3-8.1c-9.7-2.4-17.9-4.9-24.7-7.5c-5.1-1.9-9.5-3.9-13.1-5.8
	c-2.7-1.4-5-2.9-6.8-4.2c-2.8-2-4.5-3.8-5.4-5c-0.4-0.6-0.7-1.1-0.7-1.3c0-0.1-0.1-0.2-0.1-0.2c0-9.4,1.1-17.4,2.9-24.4
	c1.6-6.1,3.8-11.4,6.5-16.1c4.7-8.2,10.9-14.6,18.3-20.1c5.5-4.1,11.7-7.6,18.2-10.7c7.3-3.5,15.1-6.5,22.9-9.4v16.9h5.9h5.9v-21.2
	c7.5-2.8,14.8-5.7,21.5-9.1L260.6,484l75.8-118.3c0.2,0.4,0.5,0.7,0.7,1.1c3.2,5.1,5.4,10.6,6.8,16.9c1.5,6.2,2.1,13.2,2.1,21
	c0,18.1,0,33.8,0,44.4h-27.2v11.7h67v-11.7h-27.2c0-10.6,0-26.3,0-44.4c0-11.4-1.3-21.7-4.5-31.1c-0.3-0.8-0.6-1.6-0.9-2.4
	c9.2,3.6,18.7,6.9,28,10.5c8,3.1,15.7,6.6,22.7,10.7c5.3,3.1,10.2,6.5,14.5,10.4c6.5,5.9,11.9,12.9,15.7,21.9
	C437.9,433.5,440.2,444.5,440.2,458.5L440.2,458.5z"/>
</svg>
