<?xml version="1.0" encoding="utf-8"?>
<!-- Generator: Adobe Illustrator 21.1.0, SVG Export Plug-In . SVG Version: 6.00 Build 0)  -->
<svg version="1.1" id="レイヤー_1" xmlns="http://www.w3.org/2000/svg" xmlns:xlink="http://www.w3.org/1999/xlink" x="0px"
	 y="0px" viewBox="0 0 512 512" style="enable-background:new 0 0 512 512;" xml:space="preserve">
<style type="text/css">
	.st0{fill:none;stroke:#000000;stroke-width:20;stroke-miterlimit:10;}
</style>
<g>
	<path d="M434.1,239l-33-46.1c-8-10.9-18.5-19.8-30.5-26l-67.5-35.4c-15.6-6.4-26.8-11.6-43.1-12.3l-18.8-0.5
		c-11.7-0.2-23.5,3.5-31.7,11.8l-64.2,57.6l-55.6,15.3c-10.5,2.9-17,13.5-14.6,24.2l0.2,0.8c2.3,10.5,12.3,17.4,22.9,15.9l44.8-6.4
		c11.2-1.6,22-5.2,31.8-10.7l27.1-18.3l1.4,89.9c-0.3,7.2-0.4,12.2-3.5,17.5L108,475.8c-6.6,11.4-2.7,25.9,8.6,32.5l0.8,0.5
		c10.7,6.3,24.5,3.2,31.6-6.9l104.9-148.4l40.2,87.9c3.1,4.1,6.9,7.6,11.1,10.5l80.2,53.7c10.1,6.8,23.7,4.6,31.3-4.9l0.9-1.2
		c3.9-4.9,5.6-11.1,4.8-17.3c-0.8-6.2-4-11.8-8.9-15.6l-69.2-53.1l-40-113.2l3.6-101.4l48,14.4l50.5,49.6c6.3,6.2,16.3,6.9,23.5,1.6
		l0.5-0.4C438.1,258.2,439.9,247.1,434.1,239z"/>
	<path d="M239.7,99.2c27.2,4.2,52.7-14.5,56.9-41.8c4.2-27.2-14.5-52.7-41.8-56.9c-27.2-4.2-52.7,14.5-56.9,41.8
		C193.8,69.6,212.5,95.1,239.7,99.2z"/>
	<line class="st0" x1="0" y1="244" x2="512" y2="244"/>
</g>
</svg>
