<svg xmlns="http://www.w3.org/2000/svg" viewBox="0 0 1000 1040.96"><defs><style>.cls-1{fill:#00bcd4;}.cls-2{fill:#ffcdd2;}.cls-3{fill:#b51c35;}.cls-4{fill:#555;}.cls-5{fill:#fff;}</style></defs><title>about_img</title><g id="レイヤー_2" data-name="レイヤー 2"><g id="レイヤー_2-2" data-name="レイヤー 2"><circle class="cls-1" cx="500" cy="500" r="500"/><path class="cls-2" d="M766.79,572.85s-47.27-75.64-152.36-72.74l9.5-108.93L583,489.49c-90.94-9.47-98.52-11.36-183.77,5.69L372.74,379.61,353.79,500.86c-90.94,5.68-127.67,43.77-127.67,43.77-21.58,191.54,67.05,234.72,67.05,234.72a190.24,190.24,0,0,1-43-10.09c62.3,46,135.59,72.61,214,72.61,67.38,0,131-19.59,187-54.29q-5.6-.21-11.37-.65S755.43,713.05,766.79,572.85Z"/><polygon class="cls-3" points="560.72 108.61 560.29 106.8 559.89 107.38 560.72 108.61"/><path class="cls-4" d="M125.12,617.18C133.67,692.74,200.34,768,200.34,768l-17.06-58.73s11.5,39.53,66.89,60C198.4,731,124.89,615.12,125.12,617.18Z"/><path class="cls-4" d="M867.32,437.34c-23.13,153-104.82,281.38-216.09,350.24,115.57,4.26,173.82-66.47,203.18-139.42A336.55,336.55,0,0,0,867.32,437.34Z"/><path d="M203.81,313.5l.31-.2Z"/><path class="cls-4" d="M867.26,437.68a2.21,2.21,0,0,0,0-.68q-2.94-11.16-6.63-22.17C754.26,98.56,582,104.78,562.17,106.59a1.66,1.66,0,0,0-1.45,2h0l-.83-1.24.4-.58-.89-.16-.06-.08-.05.07C544.56,104.18,345.71,59,189,282.93a.63.63,0,0,1-.11.12c-1.47,1.35-30.71,28-65.83,26.75-1.53-.05-2.51,2.07-1.19,2.85,33.19,19.83,55,10.24,55,10.35C42.62,608.34,155.64,725.16,250,769.12c.15.07.27.17.42.23a185.23,185.23,0,0,0,35.15,8.94,1.65,1.65,0,0,0,1.23-3c-19.53-14-76.23-68.53-61.69-220.81a23.84,23.84,0,0,1,9.71-17c15.49-11.25,52.54-32.2,117.67-36.52a1.66,1.66,0,0,0,1.52-1.39l17.36-111.1a1.65,1.65,0,0,1,3.25-.09l22.61,106.36a1.65,1.65,0,0,0,1.94,1.28c83.43-16.63,101-15.72,181.8-3.66a1.66,1.66,0,0,0,1.77-1l37.11-90.18a1.65,1.65,0,0,1,3.17.77l-8.42,96.52a1.65,1.65,0,0,0,1.53,1.78c74.65,5.45,122.23,43.75,141.24,62.43a27.83,27.83,0,0,1,8,23.52C750.07,702.79,663.27,770.41,643.76,784.26a1.66,1.66,0,0,0,.85,3c2.06.12,4.09.22,6.11.3a1.67,1.67,0,0,0,.95-.25C762.62,718.44,863.41,714.94,867.26,437.68Z"/><path class="cls-2" d="M776.35,547.72a58.1,58.1,0,1,0,58.09,58.09A58.09,58.09,0,0,0,776.35,547.72Zm-5.68,109.87a7.58,7.58,0,1,1,7.57-7.58A7.58,7.58,0,0,1,770.67,657.59Zm13.71-99,26.79,26.79a18.94,18.94,0,0,1-26.79-26.79ZM797.19,650a7.58,7.58,0,1,1,7.57-7.57A7.57,7.57,0,0,1,797.19,650Zm19.57-20.83a6.95,6.95,0,1,1,7-6.95A6.95,6.95,0,0,1,816.76,629.18Z"/><circle class="cls-5" cx="583.97" cy="768.93" r="14.21"/><circle class="cls-5" cx="545.77" cy="788.51" r="8.05"/><path class="cls-5" d="M566,974.33l-49.22-219.4c-9.21-41-59.36-56.69-90.29-28.21L261.05,879.05c-30.92,28.48-19.42,79.75,20.71,92.29l39.73,12.42,53.11-154L514.05,877.8l-51.71,150,34,10.64C536.5,1051,575.15,1015.35,566,974.33Z"/><polygon class="cls-4" points="374.6 829.72 321.49 983.76 462.34 1027.77 514.05 877.8 374.6 829.72"/><ellipse class="cls-2" cx="459.81" cy="730.8" rx="82.41" ry="74.83"/><path class="cls-5" d="M557.17,613.45c0-28.19,15.83-52.93,39.65-66.93-34.27,4.53-60.36,20.6-73.16,30.06a19.87,19.87,0,0,0-8,18c9.61,96.56,79.87,97.61,103.71,95.13C583.53,680.46,557.17,649.82,557.17,613.45Z"/><path class="cls-4" d="M702.25,573.4c-39.12-25.95-75.41-30.84-105.43-26.88-23.82,14-39.65,38.74-39.65,66.93,0,36.37,26.36,67,62.24,76.22a76.76,76.76,0,0,0,7.89-1.18c53.91-3.92,75.87-66.43,83-94.21A19.29,19.29,0,0,0,702.25,573.4Z"/><path class="cls-5" d="M280.41,616.72c0-26,14.58-48.74,36.52-61.63-31.56,4.17-55.59,19-67.38,27.68a18.3,18.3,0,0,0-7.33,16.54c8.85,88.93,73.56,89.9,95.51,87.61C304.68,678.44,280.41,650.23,280.41,616.72Z"/><path class="cls-4" d="M414,579.84c-36-23.9-69.46-28.4-97.1-24.75C295,568,280.41,590.76,280.41,616.72c0,33.51,24.27,61.72,57.32,70.2a67.25,67.25,0,0,0,7.27-1.09c49.65-3.61,69.87-61.17,76.43-86.76A17.76,17.76,0,0,0,414,579.84Z"/></g></g></svg>