<svg xmlns="http://www.w3.org/2000/svg" viewBox="0 0 1500 1500"><defs><style>.cls-1{fill:#b71c1c;}</style></defs><title>icon_3</title><g id="レイヤー_2" data-name="レイヤー 2"><g id="レイヤー_5" data-name="レイヤー 5"><g id="レイヤー_3" data-name="レイヤー 3"><path class="cls-1" d="M750,0A747.12,747.12,0,0,0,254.4,187.08,150,150,0,1,1,94.65,385,746.59,746.59,0,0,0,0,750c0,414.21,335.79,750,750,750s750-335.79,750-750S1164.21,0,750,0ZM400.13,437.43A48.56,48.56,0,1,1,351.57,486,48.56,48.56,0,0,1,400.13,437.43Zm853.07,666.34a176.65,176.65,0,0,1-61,118.47c-412.86,352.83-780.95,105.76-901.44,3.94a147.24,147.24,0,0,1-52.09-103.64c-5.62-94.55.13-172.43,9.3-243.89a99.84,99.84,0,0,1,48.61-73.5c89.87-52.59,203.14-60.77,203.14-60.77-14.91-57.75,57-320.15,57-320.15S537,632.61,546.28,733.2c0,0,285-37.26,400.51,0,0,0,23.45-234.45,10.41-322l64.1,322s194,22.59,214.22,89.42C1261.38,907.94,1261.76,1009,1253.2,1103.77Z"/><path class="cls-1" d="M1001.48,1165.64c-10,5.86-20.06,11.26-30.23,16.5-5.07,2.66-10.2,5.16-15.3,7.74l-15.38,7.49q-30.84,14.73-62.22,28c-20.89,8.88-42,17.28-63.12,25.39s-42.46,15.8-63.87,23.22l-6.75,2.34-6.64-2.43c-41-15-81.61-31.12-121.63-48.84-20-8.86-39.89-18.11-59.56-27.9-9.83-4.92-19.63-9.9-29.35-15.12s-19.4-10.55-28.91-16.34c11,1.66,21.86,3.77,32.65,6s21.53,4.69,32.22,7.23c21.37,5.12,42.55,10.77,63.58,16.81,42.07,12.08,83.56,25.76,124.64,40.57l-13.39-.09q32.06-11.22,64.47-21.48c21.62-6.8,43.34-13.3,65.23-19.32s43.91-11.67,66.12-16.76l16.71-3.68c5.6-1.15,11.17-2.38,16.79-3.44C978.77,1169.29,990,1167.23,1001.48,1165.64Z"/><circle class="cls-1" cx="329.93" cy="1138.63" r="149.99"/><circle class="cls-1" cx="1176.59" cy="1138.63" r="149.99"/><path class="cls-1" d="M896.89,986.51a114.27,114.27,0,0,1,5.17-18.13,143.27,143.27,0,0,1,6.66-15.14,136.48,136.48,0,0,1,16.17-24.61,126.23,126.23,0,0,1,40.74-32.39,124.87,124.87,0,0,1,50.3-13.29c2.32-.1,4.66-.16,7-.15s4.78.08,7.24.25a137.49,137.49,0,0,1,15.11,1.76,141.81,141.81,0,0,1,16.13,3.79,113.28,113.28,0,0,1,17.64,6.81A114.59,114.59,0,0,1,1074,913.6a140.23,140.23,0,0,1-6.65,15.18,136.39,136.39,0,0,1-7.66,13.15c-1.34,2.07-2.75,4-4.14,5.94s-2.88,3.75-4.35,5.55a125,125,0,0,1-40.81,32.26A126.34,126.34,0,0,1,960,998.84,136.8,136.8,0,0,1,930.6,997a141.58,141.58,0,0,1-16.11-3.75A114.62,114.62,0,0,1,896.89,986.51Z"/><path class="cls-1" d="M631.91,986.51a114.31,114.31,0,0,1-17.61,6.74A141.09,141.09,0,0,1,598.19,997a136.71,136.71,0,0,1-29.38,1.84,126.34,126.34,0,0,1-50.36-13.16,125,125,0,0,1-40.81-32.26c-1.48-1.8-2.93-3.64-4.35-5.55s-2.81-3.87-4.14-5.94a136.43,136.43,0,0,1-7.67-13.15,142.22,142.22,0,0,1-6.64-15.18,114.56,114.56,0,0,1-5.14-18.19,114,114,0,0,1,17.64-6.81,142.31,142.31,0,0,1,16.13-3.79,137.67,137.67,0,0,1,15.12-1.76c2.46-.17,4.84-.2,7.24-.25s4.72.05,7,.15a124.83,124.83,0,0,1,50.29,13.29,126.15,126.15,0,0,1,40.75,32.39,136.46,136.46,0,0,1,16.16,24.61,143.28,143.28,0,0,1,6.67,15.14A116.42,116.42,0,0,1,631.91,986.51Z"/><circle class="cls-1" cx="729.68" cy="1079.35" r="9.31"/><circle class="cls-1" cx="770.32" cy="1079.35" r="9.31"/></g></g></g></svg>