<?xml version="1.0" encoding="utf-8"?>
<!-- Generator: Adobe Illustrator 22.0.1, SVG Export Plug-In . SVG Version: 6.00 Build 0)  -->
<svg version="1.1" id="canvas" xmlns="http://www.w3.org/2000/svg" xmlns:xlink="http://www.w3.org/1999/xlink" x="0px" y="0px"
	 viewBox="0 0 400 89.4" style="enable-background:new 0 0 400 89.4;" xml:space="preserve">
<style type="text/css">
	.st0{fill:none;stroke:#000000;stroke-miterlimit:10;}
</style>
<g>
	<path class="st0" d="M34.3,60.4c-0.6,0.6-1.2,1.2-1.8,1.8c-1.4,1.9-3.5,3-5.4,4.3c-1.5,0.9-3,1.8-4.5,2.7c-1.4,0.8-3.2,1-4.7,0.5
		c-3.3-0.9-5.5-3.1-7.4-5.7c-0.6-0.8-1.2-1.5-1.8-2.2c-0.8,0.2-0.9,0.8-1,1.4c-0.5,2.1-0.8,4.4-0.7,6.6c-0.1,0.9-0.2,1.7-0.3,2.6
		c0,1.4,0,2.8,0.1,4.3c0,0.6,0.2,1.1,0.2,1.7c0.1,2.6,0.7,5.2,1.6,7.6c0.2,1,0.4,2,0.4,2.9c-1.1,0.3-2.2,0.5-3.3,0.5
		c-0.9-0.2-1.8-0.6-2.6-1.2c-0.8-0.6-1.3-1.4-1.4-2.3C1.6,84.9,1.3,84,1,83.2c-1.1-4.8-1.1-9.7-0.9-14.7c0.2-2.9,0.7-5.8,1.4-8.7
		c0.6-2.8,1-5.7,1.6-8.6c0.2-0.7,0.5-1.5,0.9-2.1c0.3-0.3,0.6-0.4,1-0.5c2.3-0.1,4.4,1.2,5.4,3.3c0.9,1.9,1.9,3.8,2.9,5.6
		s2.2,3.4,3.3,5c0.9,1.3,1.3,1.4,2.7,0.7c3.1-1.6,6.1-3.3,8.3-6c1-1.2,1.8-2.4,2.8-3.5c1.4-1.7,2.9-3.3,4.3-5c0.8-1,2.2-1.3,3.4-0.9
		c0.9,0.3,1.8,0.7,2.6,1.3c0.8,0.6,1.3,1.5,1.5,2.5c0.6,2.3,0,4.4-0.3,6.5c-0.4,2.9-0.5,5.8-0.3,8.7c0.1,1.9,0.2,3.8,0.3,5.7
		c0.2,3,0.5,5.9,0.7,8.9c0.1,0.7,0,1.3-0.1,2c-0.1,1.1-1,1.9-2.1,1.8c-0.2,0-0.4-0.1-0.6-0.1c-1.2-0.3-2.4-0.5-3.3-1.5
		c-0.6-0.6-1-1.5-1-2.4c0.1-3.2-0.1-6.5-0.6-9.7c-0.2-1.9-0.2-3.8-0.3-5.7S34.4,62.5,34.3,60.4z"/>
	<path class="st0" d="M364.8,73.8c1.3,0.3,2.7,0.1,3.9-0.7c0.9-0.5,1.8-1,2.6-1.6c0.6-0.5,1.5-0.6,2.1-0.2c0.8,0.3,1.6,0.6,2.4,0.9
		c0.4-0.8,0.7-1.5,1-2.2c0.7-2.1,1.6-4.1,2.9-5.9c0.6-0.9,1.2-1.8,1.7-2.7c0.7-1.2,1.7-2.2,2.9-3c0.3-0.2,0.7-0.4,1.1-0.4
		c1.6-0.2,3.3-0.1,4.9,0.3c2.4,1,5,1.7,6.8,3.7c1.8,2,3.1,4.1,2.9,6.9c-0.1,1.2,0,2.5-0.8,3.6c0,0-0.1,0.1-0.1,0.1
		c0.2,2-1.2,3.4-1.9,5.1c-0.4,0.7-0.9,1.3-1.5,1.8c-1.3,1.4-3,2.5-4.8,3.2c-1.4,0.4-2.8,0.6-4.2,0.5c-3.5,0-6.9-1.6-9.2-4.3
		c-0.5-0.7-1-1.4-1.4-2.2c-0.5-0.9-0.7-0.9-1.6-0.5c-0.5,0.2-1,0.4-1.5,0.7c-1.8,1.2-3.7,2.2-5.7,3.1c-2.3,1.1-4.2,0.6-6-0.7
		c-0.9-0.7-1.7-1.5-2.5-2.3c-0.3-0.4-0.5-1-0.5-1.5c0-1.4,0.2-2.9,0.2-4.3c0-1.8-0.5-2.6-2.2-2.9s-2.4-1.5-3.2-2.7s0.4-2.7,1.8-2.7
		c0.8,0,1.6,0.1,2.5,0.3c1.6,0.2,2.1,0,2.8-1.4c0.4-0.8,0.8-1.6,1.4-2.4c0.5-0.8,1.6-1.1,2.4-0.6c0.1,0.1,0.3,0.2,0.4,0.3
		c1.1,0.7,2,1.7,2.5,2.9c0.2,0.8,0.8,0.7,1.5,0.7c1.7-0.4,3.6,0.2,4.8,1.4c0.4,0.4,0.8,0.9,1,1.5c0.4,1,0,2.1-1,2.6
		c-0.2,0.1-0.5,0.2-0.7,0.2c-2.1,0.2-4.3,0.4-6.4,0.7c-0.3,0-0.9,0.4-0.9,0.7C364.8,70.9,364.6,72.4,364.8,73.8z M382,74.6
		c0,0.6,0,1.1,0.1,1.7c0,0.8,0.6,1.4,1.4,1.4c1.2,0.1,2.5,0,3.6-0.3c3-1.3,5.7-3,6.7-6.4c0.5-1.6,0.7-3.2,0.5-4.8
		c-0.1-1.2-1-2.1-2.1-2.3c-1.7,0-3.4,0.3-5,0.9c-0.3,0.2-0.6,0.4-0.8,0.7c-1.3,1.4-2.4,3.1-3.1,4.9C383,71.7,381.8,72.9,382,74.6z"
		/>
	<path class="st0" d="M174.9,51.9c-0.5-0.1-1.1-0.2-1.7-0.2c-2.3,0-4.6-0.1-6.9-0.1c-0.5,0-1,0-1.5,0.1c-1.4,0.3-2.8,0.2-4.1-0.3
		c-1.1-0.4-2-1.2-2.4-2.2c-0.4-1.2,0.2-2.5,1.3-2.9c0.1,0,0.3-0.1,0.4-0.1c1.6-0.1,3.2-0.2,4.8-0.2c4.1,0,8.1,0,12.2,0.2
		c3.6,0.1,7.3,0,10.9-0.3c2.2-0.1,4.5-0.4,6.8-0.4c2-0.1,3.9,0.9,5,2.5c0.5,0.8,0.4,1.7-0.4,2.8c-4,0-8.1,0.4-12.1,1
		c-0.9,0.1-1.7,0-2.6,0.1c-2.2,0.2-2.9,0.7-3.4,2.9c-0.4,1.8-0.7,3.7-0.9,5.6c-0.3,3.8-0.6,7.6-0.6,11.4c0,2,0.4,4.1,0.5,6.1
		c0.1,1.7-0.1,3.4-0.6,5c-0.2,0.6-0.7,0.9-1.3,0.9c-2.5,0.1-4.6-1.8-4.8-4.3c-0.3-6.2-0.1-12.3,0.4-18.5c0.3-2.8,0.8-5.6,1.1-8.4
		C174.9,52.4,174.9,52.2,174.9,51.9z"/>
	<path class="st0" d="M304.9,62.7c0.7-0.4,1.2-0.7,1.8-1c1-0.6,2.2-0.6,3.2,0c0.9,0.6,1.9,1.1,2.8,1.7c0.5,0.4,1,0.3,1.3-0.2
		c1-1.6,2.6-2.4,4-3.6c0.8-0.5,1.7-0.6,2.5-0.4c1,0.1,2,0.3,3,0.6c2.6,0.9,4.5,3.2,4.8,6c0.1,1.7-0.1,3.4-0.5,5
		c-0.2,0.8-0.3,1.6-0.5,2.4c-0.2,0.9-0.6,1.8-1,2.7c-0.4,0.7-1.2,1-2,0.7L322,76c-0.5-0.6-0.9-1.2-1.4-1.8c-0.4-0.5-0.4-1.2,0-1.7
		c1.4-1.9,1.6-4.1,1.7-6.3c0-0.6,0.2-1.2-0.5-1.5s-1.2,0.1-1.6,0.5c-1.1,1-1.9,2.3-2.5,3.7c-0.4,1-0.9,2-1.4,2.9
		c-0.9,1.9-1.4,4-1.6,6.1c-0.1,1.2-0.6,1.7-1.7,1.4c-1.6-0.3-3.2-0.8-4.1-2.6c-0.4-1.1-0.5-2.3-0.2-3.4c0.2-1.2,0.1-2.4-0.4-3.6
		c-0.7,0.9-1.3,1.7-1.8,2.5c-1.1,1.7-1.3,3.7-1.8,5.5c0,0.2,0,0.3-0.1,0.5c-0.5,1.9-2,2.4-3.6,1.3c-0.5-0.3-0.9-0.5-1.3-0.9
		c-0.8-0.7-1.3-1.7-1.3-2.8c0.2-2.3,0-4.7,0.1-7.1c0.1-1.7,0.3-3.4,0.5-5.1c0.1-0.6,0.1-1.2,0.1-1.8c0-1,0.5-1.6,1.5-1.5
		c0.7,0.1,1.4,0.3,2,0.7C303.4,61.6,304.1,62.1,304.9,62.7z"/>
	<path class="st0" d="M52.7,73.5c0.1-1.9,0.5-3.9,1.1-5.7c0.2-0.5,0.4-1,0.5-1.4c0.6-1.8,1.8-3.4,3.3-4.5c0.2-0.2,0.4-0.3,0.7-0.4
		c3.1-0.9,6.1-1.7,9.3-0.5c1.7,0.7,3.2,2,4,3.6c0.4,0.8,0.8,1.5,1.4,2.1c0.4,0.7,0.6,1.5,0.6,2.3c-0.1,1.1-0.1,2.1,0,3.2
		c0.4,1.9,0.9,3.7,1.4,5.5c0.1,0.5,0.4,1,0.7,1.4c1,1.5,1.8,3.2,2.4,4.9c0.3,0.8,0.1,1.1-0.7,1.3c-0.4,0.1-0.8,0.1-1.2,0
		c-1.6-0.5-3.1-1-4.1-2.7c-0.7-1.3-1.8-2.5-2.6-3.8c-0.4-0.6-0.6-1.3-1-1.9c-0.6-0.8-0.9-0.8-1.6-0.1s-1.4,1.7-2.2,2.5
		c-0.7,0.8-1.5,1.5-2.4,2.2c-0.7,0.5-1.6,0.7-2.5,0.5c-1-0.3-1.9-0.6-2.9-1c-2.4-1-3.5-3-4.1-5.4C52.8,74.9,52.7,74.2,52.7,73.5z
		 M59.8,74.6c0.6-0.4,1.3-0.9,1.8-1.4c1.2-1.4,2.3-2.9,3.5-4.3c0.3-0.4,0.5-0.8,0.6-1.3c0.2-0.9-0.2-1.4-1.1-1.3
		c-1.4,0-2.7,0.9-3.3,2.2c-0.6,1.4-1.1,2.9-1.5,4.4C59.7,73.5,59.7,74.1,59.8,74.6z"/>
	<path class="st0" d="M254.2,74.5c-0.4,0.9-0.1,1.9,0.7,2.5c0.3,0.2,0.6,0.4,0.9,0.6c0.6,0.4,1.2,0.7,0.9,1.6
		c-0.4,1.2-0.6,1.6-1.8,1.5c-2.6-0.2-4.9-1-6.3-3.6c-0.9-1.8-1.4-3.8-1.4-5.9c-0.1-2.2,0.1-4.3,0.4-6.4c0.5-2.7,1.4-5.3,2.8-7.6
		c1-1.6,2.5-1.8,4-0.6c0.4,0.3,0.9,0.6,1.2,0.9c1,0.7,1.3,2.1,0.6,3.1c-0.1,0.1-0.1,0.2-0.2,0.3c-0.2,0.3-0.4,0.7-0.8,1.4
		c0.5,0,1-0.1,1.5-0.2c1.6-0.5,3.2-1,4.9-1.4c2.8-0.8,5,0.4,7,2.3c0.5,0.6,0.6,1.5,0.2,2.2c-0.3,0.6-0.9,0.9-1.5,0.8
		c-2.6-0.1-5.1,0.6-7.3,2.1c-0.6,0.4-1.2,0.9-1.7,1.5c-0.4,0.4-0.5,1-0.2,1.4c0.3,0.5,0.7,0.4,1.2,0.4c2.2-0.2,4.4-0.2,6.6,0.1
		c1.8,0.2,3.4,1.2,4.5,2.6c0.4,0.5,0.9,1.3,0.4,1.8s-1,1.3-2.2,1.1c-1.6-0.3-3.3-0.4-5-0.2c-3.1,0.5-6.2-0.2-8.8-1.9
		C254.7,74.6,254.4,74.5,254.2,74.5z"/>
	<path class="st0" d="M108.5,65.4c1.7-0.4,2.9-0.6,4.1-1c0.8-0.3,1.6-0.3,2.4,0.2c1.1,0.6,2.2,1.2,3.2,1.9c0.7,0.5,0.9,1.6,0.4,2.3
		c-0.2,0.3-0.5,0.5-0.8,0.6c-1.6,0.6-3.2,1-4.8,1.6c-0.7,0.3-1.4,0.7-1.9,1.2c-0.3,0.4-0.6,0.8-0.8,1.3l4.1,0.9
		c0.6,0.1,1.3,0.3,1.9,0.4c0.9,0.3,1.7,0.8,2.8,1.3c0.2,0.5,0.4,0.9,0.7,1.4c0.5,0.8,0.3,1.9-0.5,2.5c-0.2,0.1-0.4,0.2-0.6,0.2
		c-0.4,0.1-0.8,0.1-1.2,0c-2.4-1-5-0.7-7.4-1.1c-0.8-0.1-1.6-0.3-2.7-0.5c0.1,0.5,0.2,1.1,0.3,1.6c0.3,0.8,0.6,1.6,0.9,2.3
		c0.4,0.8,0.3,1.8-0.3,2.5c-0.7,0.6-1.7,0.7-2.5,0.3c-1.2-0.4-2.3-0.9-2.7-2.2c-2-1.8-1.9-4.3-2.3-6.6c-0.5-3.3-0.3-6.6,0.5-9.8
		c0.5-2.2,0.9-4.4,1.4-6.6c0.1-0.5,0.2-0.9,0.3-1.3c0.2-1.1,1.2-1.7,2.3-1.5c0.2,0,0.4,0.1,0.6,0.2l0.6,0.2c2.7,1.1,3,1.9,2.6,5.1
		C108.8,63.6,108.7,64.3,108.5,65.4z"/>
	<path class="st0" d="M279.8,57.6c1.9,0,3.8,0.6,5.5,1.7c0.2,0.2,0.5,0.3,0.8,0.4c1.6,0.2,2.5,1.3,3.5,2.3c0.5,0.6,0.7,1.4,0.5,2.2
		c-0.2,1.5-0.1,3.1,0.1,4.6c0.3,1.6,0.9,3,1.8,4.4c0.4,0.8,1.1,1.4,2,1.7c0.7,0.3,1.3,0.8,1.8,1.4c0.8,0.9,0.5,1.7-0.7,2.1
		c-1,0.3-2.2,0.2-3.1-0.3c-1.5-0.9-3.2-1.7-4.4-3.1s-1.4-1.3-2.8-0.2c-0.5,0.4-1,0.8-1.4,1.2c-1.7,1.4-3.9,1.9-6,1.5
		c-2.2-0.3-3.9-1.6-5.5-2.9c-0.2-0.1-0.3-0.3-0.4-0.5c-0.5-1-0.9-2-1.2-3.1c-0.1-0.8-0.1-1.6,0-2.4c0.6-4,2.9-7,6-9.5
		C277.3,58,278.5,57.6,279.8,57.6z M276.5,70.1c-0.1,1.4,0.4,1.9,1.3,1.6c2.7-1.1,4.6-3.5,5.2-6.4c0.1-0.7,0.1-1.4-0.5-1.8
		s-1.4,0-2,0.5c-0.8,0.7-1.6,1.5-2.2,2.3C277.5,67.6,276.4,68.7,276.5,70.1z"/>
	<path class="st0" d="M210.3,72.5c-0.3-0.2-0.7-0.4-1-0.6c-2.8-1-5.3-2.8-7.2-5.1c-1.6-1.8-1.6-3.2-0.1-5.1c0.8-1.1,1.6-2.1,2.5-3.1
		c0.5-0.5,1.2-0.9,2-1c1.1-0.1,2.3,0,3.4,0.2c1.1,0.2,2.1,0.8,3.2,1.1c1.5,0.5,2.8,1.3,3.9,2.4c0.6,0.6,0.7,1.5,0.4,2.3
		c-0.2,0.6-0.8,1-1.5,0.9c-1,0.1-2,0-2.8-0.5c-0.3-0.2-0.6-0.3-1-0.5c-1.9-0.7-2.5-0.4-3.6,1.1c-0.5,0.7-0.5,1.1,0.1,1.6
		c0.9,0.7,1.8,1.3,2.8,1.9s2.1,1.1,3,1.9c2,1.6,2.5,4.3,1.4,6.5c-1.6,3.4-5.6,4.9-9.1,3.3c-0.2-0.1-0.4-0.2-0.6-0.3
		c-1-0.6-2.2-1-3-2c-0.3-0.2-0.6-0.4-0.9-0.6c-0.3-0.2-0.7-0.1-1,0.2c-0.1,0.1-0.1,0.2-0.1,0.3c-0.1,0.5-0.2,1.1-0.1,1.7
		c0,0.4,0.1,0.9,0.1,1.4c0,0.6,0.1,1.4-0.2,1.7c-0.7,0.5-1.4,0.8-2.2,1c-0.2,0.1-0.4,0-0.6-0.1c-1.5-0.6-2.7-1.7-3.6-3
		c-0.2-0.3-0.3-0.6-0.3-1c0-2,0.5-3.9,1.3-5.6c0.4-0.8,1-1.5,1.6-2.1c0.9-0.9,2.1-0.7,3.2-0.4c2.3,0.5,4.3,1.6,6.1,3.2
		c0.6,0.6,1.6,0.7,2.2,0.1C209.1,73.9,210.2,73.8,210.3,72.5z"/>
	<path class="st0" d="M121.6,78c0.2-2,0.4-4,0.8-6.1c0.2-1.3,0.5-2.6,0.8-3.9c0.2-0.9,0.6-1.8,1-2.7c0.5-0.9,1.4-1.4,2.4-1.4
		c1.7,0,3.4,0.3,5,0.9c2.1,0.7,4.2,1.7,6,3c1,0.9,1.7,2,2.2,3.3c0.2,0.6,0.1,1.3-0.1,1.9c-0.3,0.6-0.3,1.3-0.1,1.9
		c0.5,1.7,1,3.5,2.7,4.5c0.9,0.5,0.6,1.5,0.5,2.2c-0.2,1-1,1.7-2,1.7c-1.1-0.1-2.2,0-3-1.1c-0.6-0.7-1.3-1.4-2.1-2.1
		c-0.9-0.9-1-0.9-1.9,0c-1.3,1.3-2.7,2.5-4.1,3.7s-3.3,0.8-4.9,0c-0.5-0.3-1-0.6-1.4-0.9c-1.1-0.8-1.7-2.1-1.7-3.5
		c0-0.5,0-0.9,0.1-1.4L121.6,78z M129.9,69.8c-1,1.8-1.5,3.9-1.3,6c1.7-1.3,3-3,3.8-5.1C131.7,70.1,130.8,69.8,129.9,69.8
		L129.9,69.8z"/>
	<path class="st0" d="M351,70.7c0,1-0.1,2-0.3,2.9c-0.4,1.9-1.3,3.6-2.5,5c-1.3,1.7-3,2.1-4.9,2.5c-0.3,0.1-0.6,0-0.9-0.1
		c-2.4-0.8-4.9-1.3-7.2-2.7c-4-2.5-5.2-6.6-3-10.8c0.5-0.9,0.9-1.9,1.3-2.8c1.1-2.3,2.8-4.2,5-5.5c0.7-0.4,1.4-0.6,2.2-0.7
		c2.9-0.5,5.9,0.6,7.7,2.9c0.2,0.1,0.3,0.3,0.4,0.5C349.9,64.8,351.6,67.5,351,70.7z M345.1,68c0-1.7-0.3-2-1.9-2.1
		c-0.3,0-0.6-0.1-0.9-0.2c-0.6-0.3-1.4,0-1.8,0.6c-1.5,1.8-2.5,3.9-3,6.1c-0.4,1.8,0.4,2.9,2.3,3c1.8,0.2,3.5-0.8,4.1-2.4
		C344.7,71.4,345,69.7,345.1,68z"/>
	<path class="st0" d="M247.3,78.7c-0.7,0.7-0.9,1.7-1.9,1.9c-1.3,0.3-2.7-0.1-3.8-0.9c-1.2-1-2.3-2.1-3.2-3.3
		c-1.4-1.7-1.7-1.8-3.1,0c-1.2,1.6-2.5,3.1-4,4.5c-1.1,1-2.7,1.2-4,0.7c-1.8-0.6-3.3-1.7-4.5-3.1c-0.7-0.8-1.2-1.7-1.4-2.7
		c-0.6-2.6-0.6-5.3-0.2-8c0.2-1,0.5-2,1-2.9c0.3-1.1,1.5-1.6,2.5-1.3c0.2,0,0.3,0.1,0.4,0.2c0.6,0.2,1.2,0.5,1.8,0.9
		c1.2,0.6,1.6,2.1,1,3.3c-0.1,0.1-0.1,0.2-0.2,0.3c-1.8,2.2-1.1,4.6-0.6,7.3c0.5-0.3,0.9-0.6,1.3-0.9c1.6-1.6,2.9-3.4,4-5.4
		c0.7-1.1,1.2-2.3,1.4-3.5c0.2-0.7,0.5-1.4,1-2c0.6-1,1.9-1.4,3-0.8c0.1,0,0.1,0.1,0.2,0.1c1.9,1.2,2.8,2.3,2.4,4.4
		c-0.4,1.6,0.3,3.2,0.8,4.8c0.8,2.6,2.9,4.1,4.9,5.6L247.3,78.7z"/>
	<path class="st0" d="M83.7,76c0-1.3,0.4-2.7,1-3.9c0.3-0.7,1.1-1.2,1.8-1c1.5,0.2,2.9,1,3.9,2.2c0.2,0.4,0.3,0.9,0.2,1.3
		c-0.2,2,0,4.1,0.7,6.1c0.1,0.2,0.1,0.4,0.2,0.6c0.1,2.2-0.4,3.6-3,2.8s-3.7-2.6-4.4-4.9C84,78.1,83.8,77.1,83.7,76z"/>
	<path class="st0" d="M86.5,54.4c1.6,0.3,3.1,1.1,4.1,2.4c0.3,0.3,0.2,1,0.1,1.5c-0.1,1-0.4,1.9-0.6,2.9c-0.1,0.8-0.2,1.5-0.2,2.3
		c0,1.1-0.6,2-1.6,1.9c-1.3-0.1-2.7-0.1-3.7-1.1c-0.3-0.2-0.5-0.5-0.6-0.8c-0.2-0.5-0.5-1-0.6-1.5c-0.1-0.3-0.2-0.7-0.2-1
		c0.3-1.6,0.6-3.2,0.9-4.8c0.1-1.1,1.1-1.9,2.2-1.8C86.4,54.4,86.4,54.4,86.5,54.4z"/>
</g>
<g>
	<path class="st0" d="M204.8,13.8c-1.1,0.9-2,2.1-2.6,3.3c-1.2,2.1-2.1,4.4-2.6,6.8c-0.3,1.5-1,1.6-2.4,1c-1.1-0.4-2-1.2-2.5-2.3
		c-0.3-0.8-0.4-1.7-0.4-2.6c-0.1-1.5-0.1-3.1-0.3-4.7c-0.2-0.9-0.3-1.8-0.3-2.7c0-0.2,0-0.4,0-0.6c0-0.8,0.6-1.5,1.5-1.5
		c0.3,0,0.6,0.1,0.8,0.2c1.1,0.4,2,1.2,2.6,2.3c0.5-0.6,1-1.1,1.4-1.7c0.9-1.2,2.2-2,3.7-2.3c0.9-0.1,1.8,0,2.6,0.5
		c0.9,0.5,1.8,1.1,2.7,1.6c0.8-0.8,1.6-1.6,2.4-2.4c0.9-0.9,2.4-1,3.4-0.3c0.3,0.2,0.7,0.4,1,0.6c1.4,0.7,2.4,2,2.5,3.6
		c0.1,0.6,0.1,1.2,0.1,1.8c0.1,1.5,0.2,3,0.3,4.6c0.1,1,0.1,1.9,0.1,2.9c0.1,0.8-0.5,1.5-1.3,1.5c-0.2,0-0.5,0-0.7-0.1
		c-0.5-0.1-1-0.1-1.5-0.1c-0.4-0.5-0.8-1.1-1.2-1.7c-0.1-0.3-0.2-0.6-0.2-0.9c-0.1-2-0.2-4.1-0.2-6.1c0-0.1,0-0.2-0.1-0.2
		c-0.1,0-0.2,0-0.2,0c-1.4,1.7-2.5,3.5-3.3,5.5c-0.2,0.7-0.4,1.5-0.4,2.2c-0.1,1.1-0.8,1.6-1.8,1.3c-0.6-0.2-1.3-0.5-1.9-0.7
		c-0.2-0.1-0.3-0.2-0.4-0.4c-0.5-0.8-0.7-1.8-0.7-2.8c0.1-1.4,0.1-2.7,0.1-4.1C205,14.8,204.9,14.3,204.8,13.8z"/>
	<path class="st0" d="M98.2,13c0.5-0.4,1-0.8,1.4-1.2c0.6-0.6,1.3-1.2,2-1.7c1-0.6,2.3-0.7,3.4-0.1c0.6,0.3,1.2,0.7,1.8,1.1
		c0.8,0.7,1.4,1.7,1.6,2.7c0.4,1.8,0.5,3.7,0.4,5.5c0,1.2-0.1,2.3-0.2,3.5c-0.1,0.6-0.4,1.2-0.7,1.8c-0.3,0.4-0.7,0.5-1.2,0.4
		c-0.5-0.1-1-0.2-1.6-0.3c-0.5-0.6-1-1.3-1.4-2c-0.2-0.6-0.2-1.2-0.1-1.8c0-1.4,0.1-2.9,0.2-4.3c0-0.5-0.1-1-0.2-1.6
		c-1.2,0.3-1.6,1.2-2.1,1.9c-0.8,1.1-1.4,2.5-1.6,3.8c-0.2,1.3-0.7,2.6-1.1,3.9c-0.1,0.6-0.7,1-1.3,0.8c0,0,0,0,0,0
		c-0.4-0.1-0.9-0.1-1.3-0.2c-1.4-0.2-2.4-1.5-2.3-2.9c0-1.4-0.1-2.7-0.1-4.1c0-0.5-0.1-0.9-0.3-1.4c-0.8-0.1-1.2,0.5-1.5,1
		c-0.5,0.6-0.8,1.3-1.1,2c-0.4,1.1-0.7,2.2-1.1,3.3c-0.3,0.7-0.6,1.5-0.7,2.2c0,0.3-0.6,0.6-1,0.7c-1.6,0.2-3.1-0.8-3.7-2.3
		C84.1,22.9,84,22,84,21.1c0.1-1.9,0.3-3.8,0.4-5.8c0-0.2,0-0.5-0.1-0.7c-0.3-0.5-0.2-1.2,0.3-1.6c0.4-0.5,1.1-0.6,1.6-0.3
		c0.6,0.2,1.2,0.3,1.8,0.6c0.5,0.2,1.1,0.2,1.6-0.1c1.2-0.7,2.4-1.2,3.6-1.9c1-0.6,1.9-0.1,2.7,0.3C96.8,12,97.5,12.5,98.2,13z"/>
	<path class="st0" d="M157.6,12.1c0.4-0.2,0.8-0.5,1.1-0.8c1.4-1.1,2.8-2.1,4.2-3.1c0.5-0.3,1-0.5,1.5-0.6c0.3-0.1,0.7-0.1,1.1,0
		c1.1,0.5,2.1,1.1,3,1.9c0.6,0.6,0.9,1.3,1,2.1c0.3,1.7,0.3,3.4,0.2,5.1c-0.3,1.7,0.2,3.3,0,5c-0.1,1-0.2,2-0.4,3
		c-0.1,0.6-0.4,0.7-0.9,0.7c-2,0.1-3.7-1.5-3.7-3.5c0-0.2,0-0.3,0-0.5c0.1-1.4,0.3-2.8,0.3-4.2s-0.1-2.6-0.1-4
		c-0.8,0.1-1.5,0.5-2,1.1c-2.7,2.5-4.5,5.8-5.4,9.3c-0.1,0.6-0.3,1.2-0.5,1.7c-0.1,0.4-0.5,0.7-0.9,0.6c-1.4-0.2-2.7-0.5-3.6-1.8
		c-0.3-0.5-0.5-1.1-0.5-1.7c0-2.5,0-5.1,0.1-7.6c0.1-1.6,0.3-3.1,0.4-4.7c0.1-0.8,0.1-1.5,0-2.3c0.1-0.9,0.6-1.7,1.5-2
		c0.1,0,0.2-0.1,0.2,0c0.9,0.5,1.9,0.9,2.7,1.5c0.6,0.4,0.5,1.1,0.5,1.8s-0.1,1.4-0.2,2c0,0.3,0,0.5,0,0.8L157.6,12.1z"/>
	<path class="st0" d="M230.9,19.6c0.4,0.2,0.9,0.4,1.4,0.5c1.8,0.3,3.7-0.2,5.1-1.6c0.2-0.2,0.4-0.3,0.6-0.3c1,0.1,2.1,0.1,2.8,1.1
		c0.4,0.6,0.5,1.4,0.1,2c-1.4,2.2-3.8,3.4-6.4,3.2c-0.2,0-0.5,0-0.7-0.1c-2.1-0.7-4.4-1.1-6.3-2.5c-1.7-1.1-3.2-2.6-4.3-4.3
		c-0.5-0.9-0.6-1.9-0.3-2.9c0.8-2.4,2-4.5,3.7-6.4c1.4-1.6,3.4-2.5,5.5-2.3c1.5,0.1,3.1-0.2,4.5,0.6c1,0.5,1.8,1.1,2.6,1.8
		c1.1,1.2,0.8,2.6,0.1,3.8c-1,2.1-2.6,3.9-4.5,5.2c-0.8,0.5-1.7,0.9-2.6,1.3C231.6,18.9,231,18.8,230.9,19.6z M234.4,10.5
		c-2.4-0.5-5.4,1.7-5.5,4c1,0.1,1.2,0.1,2.7-0.9C232.8,12.9,233.8,11.8,234.4,10.5z"/>
	<path class="st0" d="M184.7,20.5c-0.5,0.7-1,1.5-1.3,2.3c-0.4,1.2-1.5,2-2.2,3c-0.6,0.7-1.6,0.9-2.5,0.5c-1.3-0.3-2.4-1.1-3.2-2.2
		c-0.9-1.1-1.4-2.5-1.5-3.9c-0.3-2-0.2-4,0.3-6c0.2-0.9,0.6-1.8,1.2-2.6c0.6-0.7,1.5-1.1,2.4-1.2c0.8-0.2,1.6-0.5,2.4-0.7
		c1-0.3,2-0.6,3-0.9c0.8-0.2,1.3,0.3,1.9,0.6c0.5,0.3,1,0.7,1.4,1.1c0.8,0.7,1.3,1.8,1.3,2.8c0.1,2.2,0.7,4.4,1.8,6.3
		c0.4,0.5,0.7,1.1,1,1.7c0.3,0.8-0.1,1.7-0.9,2c-0.5,0.2-1.1,0.1-1.5-0.2c-1-0.6-2-1-2.5-2.1C185.8,21,185.3,20.8,184.7,20.5z
		 M181.5,14.8c-1.4,0-1.9,0.2-2.2,1.1c-0.2,0.7-0.4,1.5-0.4,2.2c0,0.5,0,1,0.1,1.5c1.3-0.6,1.2-1.9,1.8-2.7
		C181.3,16.3,181.5,15.6,181.5,14.8L181.5,14.8z"/>
	<path class="st0" d="M130.8,9.2c-0.1,0.8-0.4,1.6-0.9,2.2c-0.8,1.1-1.4,2.3-2.1,3.5c-0.9,1.5-1.9,2.9-2.9,4.4
		c-1.4,2.2-2.7,4.4-4,6.6c-0.6,0.9-1,2-1,3.1c0,1.3-1.1,1.9-2.4,1.5c-0.9-0.4-1.7-1.1-2.1-2c-0.7-1.2-0.7-2.7,0.1-3.8
		c0.8-1.6,1.4-3.3,2.2-5c-0.2-0.1-0.4-0.3-0.6-0.5c-0.4-0.3-0.9-0.7-1.2-1.1c-1.5-2-2.3-4.4-2.4-6.9c0-0.5,0.1-1,0.3-1.4
		c0.3-0.7,1.1-1,1.7-0.8c0,0,0.1,0,0.1,0c0.7,0.3,1.4,0.7,2.2,1c0.7,0.2,1.1,1,0.9,1.7c0,0,0,0,0,0c-0.4,1.8,0.5,3.1,1.4,4.6
		c0.3-0.2,0.5-0.5,0.7-0.7c1.4-2.2,2.9-4.4,4.3-6.6c1.3-1.9,2.9-2.2,4.7-0.8C130.1,8.5,130.4,8.9,130.8,9.2z"/>
	<path class="st0" d="M279.4,7.9c-1.2,1.1-2.2,2.3-3.1,3.6c-0.3,0.3-0.3,0.8,0.1,1.1c0.1,0.1,0.1,0.1,0.2,0.1c0.3,0.2,0.6,0.4,1,0.6
		c1.6,0.7,2.9,2,3.7,3.5c0.7,1.2,0.8,2.7,0.3,4c-0.3,0.9-1.2,1.6-2.2,1.7c-1.4,0.4-2.9,0.3-4.3-0.1c-0.5-0.1-0.9-0.2-1.4-0.2
		c-0.5,0.6-0.6,1.6-0.3,2.3c0.3,0.8,0.3,1.6,0.1,2.4c0,0.2-0.3,0.5-0.6,0.7c-0.7,0-1.3-0.2-1.8-0.7c-0.9-1.3-1.6-2.8-2-4.3
		c-0.5-1.7,0-3.6,1.3-4.9c0.2-0.2,0.5-0.4,0.8-0.4c0.8,0.2,1.5,0.4,2.2,0.8c0.6,0.5,1.4,0.7,2.1,0.5c0.4-0.1,0.9,0,1.3-0.1
		c0.7-0.1,0.8-0.5,0.6-1.1c-0.2-0.7-0.8-1.3-1.5-1.4c-1.3-0.4-2.6-1-3.8-1.7c-1.3-0.9-1.7-2.7-0.8-4c0,0,0,0,0,0
		c0.9-1.7,1.9-3.2,3.2-4.6c0.4-0.5,0.8-1,1.2-1.4c1.3-1,2.7-0.5,4,0.1c1.4,0.6,2.7,1.5,3.6,2.7c0.3,0.3,0.5,0.7,0.6,1.2
		c0.2,0.9-0.4,1.5-1.3,1.3c-0.8,0-1.5-0.3-2.1-0.8C280.2,8.3,279.8,8.1,279.4,7.9z"/>
	<path class="st0" d="M265,22.2c-0.1,0.4-0.2,0.7-0.3,1c-0.2,0.6-0.8,1-1.5,0.8c0,0-0.1,0-0.1,0c-1.6-0.3-3-1.3-3.6-2.9
		c-0.6-1.1-1-2.4-1.1-3.6c-0.1-1.4,0.1-2.9,0.8-4.2c0.3-0.6,1-0.9,1.6-0.7c0.9,0.3,1.8,0.8,2.4,1.5c0.4,0.5,0.5,1.2,0.2,1.8
		c-0.6,1.4-0.6,2.9,0,4.3c0.2,0.4,0.4,0.7,0.7,1.1C264.4,21.6,264.7,21.9,265,22.2z"/>
	<path class="st0" d="M261.3,5.5c-0.2-1.8,0.6-3.6,2-4.7c0.4-0.3,0.9-0.5,1.3-0.7c0.1-0.1,0.3-0.1,0.5,0c0.9,0.7,2,1.1,2.5,2.2
		c0.4,0.8,0.3,1.1-0.4,1.6c-1.4,1.1-1.8,2.9-1,4.5c0.1,0.1,0.1,0.3,0.2,0.4c0.2,0.5,0.5,1.1,0,1.6c-0.7,0.4-1.5,0.4-2.2,0.1
		c-0.8-0.5-1.5-1.2-1.9-2.1c-0.1-0.3-0.3-0.6-0.5-0.8C261.3,7,261.1,6.2,261.3,5.5z"/>
</g>
</svg>
