<?xml version="1.0" encoding="utf-8"?>
<!-- Generator: Adobe Illustrator 22.0.1, SVG Export Plug-In . SVG Version: 6.00 Build 0)  -->
<svg version="1.1" id="Maika_x5F_Tsukamoto" xmlns="http://www.w3.org/2000/svg" xmlns:xlink="http://www.w3.org/1999/xlink"
	 x="0px" y="0px" viewBox="0 0 2589.7 287.4" style="enable-background:new 0 0 2589.7 287.4;" xml:space="preserve">
<path id="o_1_" d="M2557.4,208.7c-0.5,6.3-0.5,12.7-1.7,18.9c-2.4,12.3-8.6,22.4-16.5,32.4c-8.6,10.9-19.6,13.8-31.7,16.1
	c-2,0.3-4,0.2-5.9-0.4c-15.8-5-32-8.4-46.4-17.4c-25.8-16.2-33.5-42.5-19.1-69.6c3.1-5.9,5.6-12.1,8.6-18
	c7.5-14.8,17.8-27.3,32.4-35.5c4.4-2.3,9.1-3.8,14-4.4c19.8-2.6,36.8,3.1,50,18.6c0.9,1,2,1.9,2.4,3.1
	C2550,170.6,2561.6,187.7,2557.4,208.7z M2519,191.1c0-10.6-1.7-12.6-12.1-13.8c-2-0.2-3.9-0.6-5.8-1.2c-4.8-1.8-8.2-0.1-11.4,3.6
	c-9.7,11.4-16.4,25.1-19.5,39.8c-2.6,11.8,2.8,18.8,14.8,19.6c12.6,0.9,21.8-4.5,26.9-16C2516.4,213,2518.8,202.1,2519,191.1
	L2519,191.1z"/>
<path id="t" d="M2415,236.7c-3.4,1.4-6.9,2.6-9.9,4.7c-11.5,8.1-24.3,13.6-36.8,19.8c-14.8,7.3-27,3.7-39-4.7
	c-5.9-4.3-11.2-9.4-15.8-15.1c-2.1-2.5-3.1-6.6-3.1-10c0.1-9.3,1.2-18.5,1.5-27.8c0.3-11.4-3.1-16.8-14.3-18.9
	c-10.6-2-15.4-10-20.6-17.3c-4.8-6.8,2.8-17.5,11.6-17.3c5.3,0.2,10.6,0.8,15.8,1.8c10.7,1.6,13.3,0.2,18.1-9.3
	c2.7-5.3,5.3-10.8,9-15.3c5.7-6.8,11.4-7.4,18.2-2.2c6.5,5,13.5,9.8,16,18.4c1.5,5.2,5.4,4.8,9.6,4.2c11.7-1.6,22.7,0.3,31.3,9.2
	c2.8,2.8,5,6.1,6.6,9.7c3.7,8.5-1.8,16.8-11.1,17.7c-13.8,1.4-27.7,2.8-41.4,4.6c-2.2,0.3-5.6,2.4-5.9,4.2
	c-1.9,9.2-5.3,18.5-3.2,28.5c10,2.9,17.6-0.4,24.9-4.6c5.8-3.3,11.4-6.8,17-10.4c4.4-2.8,8.6-4.2,13.9-1.5c4.6,2.4,9.8,3.5,15.7,5.6
	"/>
<path id="o" d="M2272.4,213.7c-0.5,6.3-0.5,12.7-1.7,18.9c-2.4,12.3-8.6,22.4-16.5,32.4c-8.6,10.9-19.6,13.8-31.7,16.1
	c-2,0.3-4,0.2-5.9-0.4c-15.8-5-32-8.4-46.4-17.4c-25.8-16.2-33.5-42.5-19.1-69.6c3.1-5.9,5.6-12.1,8.6-18
	c7.5-14.8,17.8-27.3,32.4-35.5c4.4-2.3,9.1-3.8,14-4.4c19.8-2.6,36.8,3.1,50,18.6c0.9,1,2,1.9,2.4,3.1
	C2265,175.6,2276.6,192.7,2272.4,213.7z M2234,196.1c0-10.6-1.7-12.6-12.1-13.8c-2-0.2-3.9-0.6-5.8-1.2c-4.8-1.8-8.2-0.1-11.4,3.6
	c-9.7,11.4-16.4,25.1-19.5,39.8c-2.6,11.8,2.8,18.8,14.8,19.6c12.6,0.9,21.8-4.5,26.9-16C2231.4,218,2233.8,207.1,2234,196.1
	L2234,196.1z"/>
<path id="m" d="M1973.7,161.7c4.2-2.4,7.8-4.8,11.7-6.6c6.9-3.4,13.8-4.5,20.8,0.1c5.8,3.8,12.1,7,17.9,10.9
	c3.6,2.4,6.2,2.1,8.4-1.4c6.4-10.3,16.8-15.9,25.9-23c4.9-3.9,10.9-3,16.3-2.5c6.6,0.7,13.1,2.1,19.5,4
	c15.4,4.2,30.7,22.9,31.4,38.8c0.5,11-0.1,21.9-3,32.7c-1.4,5.1-1.7,10.5-3.3,15.6c-1.7,6-3.9,11.9-6.7,17.5
	c-2.5,4.7-8.1,6.2-13.1,4.6l-14.7-4.6c-3-3.9-6-7.8-9-11.6s-2.4-7.5,0.1-11c8.8-12.2,10.3-26.3,11.2-40.6c0.2-3.7,1.1-7.9-3-9.7
	s-7.6,0.5-10.6,3.5c-6.9,6.8-12.6,14.4-16.3,23.6c-2.6,6.4-5.7,12.7-8.8,18.9c-6.1,12.4-9,25.6-10.4,39.2c-0.8,7.7-3.7,10.7-11,9.2
	c-10.7-2.2-20.9-5.3-26.6-16.6c-3.9-7.6-2.3-14.9-1.5-22.3s1.4-14.5-2.3-23.2c-4.4,6.1-8.4,11-11.8,16.3
	c-6.9,10.9-8.3,23.7-11.9,35.8c-0.3,0.9-0.1,2-0.4,3c-3.6,12.1-13.1,15.4-23.7,8.2c-2.7-1.9-5.9-3.4-8.2-5.7
	c-4.8-5-8.7-9.9-8.2-18.2c1.1-15.2-0.1-30.5,0.4-45.8c0.4-10.9,2-21.8,3-32.8c0.4-3.9,0.9-7.8,0.9-11.7c0.1-6.3,3.5-10.6,9.7-9.9
	c4.5,0.6,8.9,2.1,12.8,4.5C1964.4,153.9,1968.9,158,1973.7,161.7z"/>
<path id="a_2_" d="M319,200.6c0.4-13.4,3.4-25.2,7.3-36.9c1.1-3.1,2.6-6.1,3.5-9.3c3.7-12.4,11.9-21.3,21.5-29.3
	c1.2-1.1,2.7-2,4.2-2.6c19.8-6,39.6-11.2,60.4-3.3c12,4.6,20,12.7,26,23.5c2.7,4.9,5,9.6,9.2,13.9c3.1,3.1,3.3,9.7,3.7,14.8
	c0.6,6.9-1,14,0.3,20.7c2.3,12,6,23.8,9.4,35.6c0.9,3.2,2.3,6.3,4.2,9c7.1,9.7,10.8,20.9,15.2,31.8c2.1,5.3,0.9,7.4-4.5,8.4
	c-2.6,0.6-5.3,0.6-7.9,0.1c-10.5-3-20.3-6.6-26.3-17.3c-4.8-8.6-11.5-16.1-17.1-24.4c-2.5-3.8-3.9-8.4-6.4-12.2
	c-3.5-5.3-6.1-5.4-10.2-1c-4.9,5.4-9.4,11.2-14.4,16.5c-4.8,5-9.9,9.6-15.3,14c-4.7,3.8-10.6,4.4-16.2,3.1
	c-6.4-1.6-12.7-3.7-18.8-6.3c-15.7-6.4-23-19.4-26.5-35.1C319.5,209.5,319.4,204.5,319,200.6z M365.4,208c5.1-3.9,9.1-5.9,11.7-9
	c7.8-9.1,15.1-18.5,22.4-28c1.7-2.4,2.9-5.2,3.5-8.2c1.4-5.9-1.2-8.9-7.3-8.6c-10,0.4-17.4,5.7-21.4,14.2
	c-4.2,8.9-6.8,18.7-9.6,28.2C364,199.4,365.1,202.8,365.4,208z"/>
<path id="k" d="M1645.6,237.9c-2.6,7.3-0.2,12,4.4,15.9c1.8,1.4,3.8,2.7,5.8,3.8c3.7,2.3,7.6,4.3,5.9,10.1
	c-2.4,7.9-3.9,10.2-11.6,9.5c-17-1.5-31.6-6.3-40.9-23.4c-6.8-12.4-8.7-25.1-9-38.1c-0.5-14,0.5-28,2.8-41.8
	c3.1-17.4,9.3-34.1,18.4-49.2c6.3-10.6,16.2-11.9,26.1-4.1c2.6,2,5.5,3.8,8,5.9c7.7,6.7,8.4,13.4,2.7,21.9c-1.5,2.3-2.6,4.8-5,9.3
	c4.9-0.7,7.4-0.7,9.7-1.4c10.6-3,21-6.2,31.6-9.1c18.2-4.9,32.5,2.4,45,14.8c3.9,3.9,3.3,9.3,1.5,14.1c-1.6,4.3-5.5,5.4-9.8,5.3
	c-17.1-0.4-33,3.6-47.1,13.4c-4,2.9-7.8,6.2-11.2,9.8c-2.4,2.5-3.2,5.8-1,9.2c2,3.1,4.8,2.9,7.9,2.6c14.2-1.1,28.4-1.5,42.7,0.8
	c12.2,1.9,21.8,7.5,29.2,17.1c2.7,3.5,5.7,8.4,2.3,11.6c-3.6,3.4-6.7,8.5-14.1,7.2c-10.7-1.9-21.6-2.8-32.7-1.2
	c-20.4,3-39.7-0.7-57.1-12.3C1649.1,239,1647.8,238.8,1645.6,237.9z"/>
<path id="u" d="M1601.1,248.1c-4.5,4.4-5.6,11.3-12.6,12.4c-8.9,1.4-17.6-0.4-24.5-6.1c-7.7-6.4-14.7-13.4-21.1-21.1
	c-9-11-11.2-11.6-19.9,0c-7.8,10.4-15.6,20.6-25.7,29c-7.8,6.6-15.9,7.7-25.8,4.2c-11.3-3.9-21.4-10.8-29.2-19.9
	c-4.4-5-7.5-10.9-9.1-17.3c-4.5-17.2-3.4-34.4-1.2-51.5c0.8-6.4,3.7-12.8,6.7-18.7c4.2-8.5,10.2-10.5,19.2-7.1
	c4,1.6,7.9,3.5,11.7,5.6c8.4,4.7,11.2,15.7,5.2,23.2c-11.7,14.6-7.2,29.7-3.7,47.4c4-2.8,6.4-4.1,8.4-5.9
	c10.8-10.2,18.7-22.5,26-35.2c4.1-7.2,7.9-14.3,8.9-22.9c0.5-4.6,3.6-9.3,6.5-13.2c5.2-7.1,12.9-9.1,20.3-4.2
	c12.1,8,18.3,15.2,15.4,28.3c-2.3,10.5,2.2,20.8,5.4,30.9c5.2,16.7,18.4,26.4,31.4,36.3C1595.9,244.1,1598.2,245.9,1601.1,248.1z"/>
<path id="s" d="M1361.6,216.2c-2.2-1.3-4.1-2.8-6.2-3.6c-18.6-6.7-33.8-18.3-46.7-32.9c-10.1-11.4-10.2-20.8-0.7-33.1
	c5.3-6.8,10.3-13.9,16.3-20c3.3-3.3,8.3-6.4,12.8-6.8c7.3-0.6,14.6-0.1,21.7,1.6c7.1,1.6,13.6,5.3,20.6,7.3c10,2.8,17.7,8.5,25,15.6
	c4.8,4.7,3.6,9.8,2.4,14.8c-1.1,4.5-5.6,5.8-9.6,5.8c-6.2,0-12.7,0.5-18.3-3.4c-2-1.2-4.1-2.2-6.3-2.9c-12-4.4-16-2.8-23.6,7.4
	c-3.1,4.2-2.9,7.4,0.9,10.2c5.8,4.3,12,8.4,18.1,12.3c6.4,4.1,13.5,7.4,19.4,12.1c12.8,10.2,16.2,27.5,8.9,42.3
	c-11.8,23.7-40,33.3-62.4,19.7c-6.8-4.1-14.4-6.6-19.6-13.2c-1.3-1.7-3.8-2.6-5.9-3.6c-3.4-1.8-6.2-0.4-7,3c-0.7,3.5-1,7.2-0.8,10.8
	c0,2.9,0.9,5.9,0.8,8.8c-0.1,3.9,0.6,9.2-1.5,11.2c-3.7,3.4-9.3,4.8-14.2,6.8c-1.3,0.4-2.6,0.2-3.8-0.4
	c-9.1-4.9-17.9-10.3-23.2-19.6c-1.2-1.9-1.9-4.2-1.9-6.5c1-12.6,2.3-25.3,8.7-36.5c2.7-4.9,6.2-9.4,10.2-13.4
	c5.9-5.7,13.3-4.3,20.6-2.8c15.1,3.1,27.7,11.1,39.3,20.6c5,4.1,9.6,4.4,14.4,0.8C1354,225.4,1360.6,224.4,1361.6,216.2z"/>
<path id="T" d="M1132.2,82.5c-3.7-0.5-7.2-1.3-10.7-1.4c-15-0.3-29.9-0.4-44.9-0.5c-3.3,0-6.9-0.2-9.9,0.9
	c-9.2,3.3-17.8,0.4-26.4-2.1c-7.5-2.2-12.3-8-15.8-14.4c-4-7.1,2.7-18.6,11.2-19.3c10.3-0.9,20.6-1.6,30.9-1.5
	c26.3,0.2,52.6-0.1,78.8,1.5c23.7,1.4,47.1-0.8,70.6-2.2c14.6-0.9,29.2-2.7,43.7-2.6c13,0.1,24.7,5,32.4,16.5
	c3.4,5.2,2.5,10.7-2.7,18.4c-26.2-0.2-52.2,2.8-78.2,6.5c-5.5,0.8-11.3-0.1-16.9,0.4c-14.5,1.3-18.7,4.3-22.1,18.5
	c-2.8,12-4.8,24.1-5.8,36.4c-1.9,24.5-3.5,49.1-4,73.7c-0.3,13.2,2.4,26.4,2.9,39.6c0.4,10.9-0.5,21.8-4.1,32.3
	c-1.1,3.7-4.6,6.1-8.4,5.7c-13.5-0.4-30-9.2-30.7-27.6c-1.7-39.9-0.8-79.8,2.7-119.6c1.7-18.2,4.9-36.2,7.4-54.3
	C1132.3,85.8,1132.3,84.2,1132.2,82.5z"/>
<path id="a_1_" d="M1811.4,128.7c13.8,1,25.4,3.5,35.5,10.8c1.5,1.3,3.4,2.1,5.3,2.5c10.2,1.2,16.2,8.6,22.8,15
	c3.9,3.8,4,8.9,3.4,14c-1.2,9.9-0.9,20,0.8,29.8c1.8,10.5,6.6,19.5,11.5,28.5c2.8,5.1,7.2,8.3,12.6,10.8c4.5,2.1,8.4,5.1,11.6,8.8
	c5.2,6,3,11.2-4.6,13.4c-7.1,2-14.1,1.6-20.2-2.1c-9.9-6-20.5-10.7-28.3-20.1c-7.1-8.6-8.7-8.2-18.1-1.2c-3.2,2.4-6.2,5-9.2,7.5
	c-11.6,9.4-24.8,11.6-39.2,9.6c-14.2-2-25-10.3-35.6-18.9c-1-0.8-1.9-1.9-2.4-3.1c-2.8-6.6-6.1-13.2-7.8-20.1
	c-1.2-4.9-0.6-10.5,0.2-15.6c4.1-26.1,18.9-45.6,38.9-61.7C1795.9,130.8,1804.3,129.2,1811.4,128.7z M1789.9,209.6
	c-0.5,9.1,2.5,12.3,8.6,10.5c15.2-4.6,32.2-25.6,33.9-41.3c0.5-4.6,0.6-9.2-3.4-11.7c-4.6-3-9.1-0.1-12.6,3.1
	c-5.1,4.7-10.6,9.3-14.5,15C1796.6,193.1,1789.4,200.4,1789.9,209.6L1789.9,209.6z"/>
<path id="k_1_" d="M680.2,148.2c10.7-2.5,18.8-4,26.7-6.4c5.5-1.7,10.4-2,15.3,1c6.8,4.1,14,7.8,20.4,12.4c7.2,5.1,5.4,16-3,19
	c-10.2,3.8-20.8,6.7-31,10.6c-4.5,1.8-8.7,4.8-12.5,7.9c-2,1.7-3,4.7-5.4,8.6c9.8,2.2,18,4,26.3,5.9c4.2,0.9,8.5,1.4,12.4,2.9
	c5.8,2.2,11.3,5.2,18.1,8.4c1,2,2.5,5.6,4.5,8.9c4.2,7,1.1,15.6-6.9,17.7c-2.5,0.7-5.6,1.2-7.9,0.3c-15.5-6.3-32.1-4.7-48.1-7.2
	c-5.2-0.8-10.2-2.1-17.2-3.5c0.8,4.4,1.1,7.5,2.1,10.4c1.7,5,3.6,10,5.7,14.9c2.5,5.8,1.8,11.8-2.1,15.9s-10.4,4-16,2.1
	c-7.7-2.6-15.1-5.6-17.7-14.5c-12.7-11.6-12.2-27.7-14.7-42.9c-3.6-21.5-1.3-42.4,3.5-63.3c3.3-14.3,6.1-28.6,9.1-43
	c0.5-2.9,1.2-5.9,2.1-8.7c3-9.1,9.7-12.1,18.7-8.5c1.2,0.5,2.4,1.1,3.7,1.6c17.5,6.9,19.1,12.4,16.7,33
	C682.6,136.5,681.5,141.2,680.2,148.2z"/>
<path id="i_1_" d="M520.1,216.9c0-9.1,2.5-17.1,6.6-25c2.6-5.1,6.1-7,12-6.4c10.6,1,18.5,6.7,25.3,13.9c1.7,1.8,2,5.6,1.6,8.4
	c-2,13.5,0.5,26.4,4.4,39.2c0.5,1.2,0.9,2.5,1.1,3.8c0.8,14.4-2.3,23.1-19.2,18.2c-17.3-5-24-17-28.6-31.8
	C521.3,230.7,521.1,223.6,520.1,216.9z"/>
<path id="i" d="M537.8,76.8c11.3,1,19.2,8,26.5,15.7c1.7,1.8,1.3,6.4,0.8,9.5c-0.9,6.2-2.8,12.3-3.8,18.5c-0.7,4.9-1.1,9.9-1.1,14.8
	c0,7.2-4,13.2-10.6,12.5c-8.2-0.9-17.2-0.9-24.1-6.9c-1.6-1.5-2.9-3.3-3.9-5.3c-1.6-3.1-2.9-6.4-4-9.7c-0.8-2.1-1.2-4.4-1-6.7
	c1.8-10.4,3.7-20.9,6-31.2C524.5,79.9,529.2,76.8,537.8,76.8z"/>
<path id="a" d="M765.1,229.9c1.6-13.1,2.9-26.2,4.9-39.3c1.3-8.5,3.2-16.9,5.5-25.2c1.6-6.1,3.8-12,6.6-17.6c3.1-5.9,8.7-9,15.5-9.2
	c11-0.3,21.9,1.7,32.1,5.7c13.7,5.2,27.2,10.4,38.9,19.8c7.2,5.7,10.5,13.6,14.3,21.2c1.6,3.3,0.6,8.6-0.8,12.5
	c-1.6,4-1.8,8.4-0.5,12.6c3.5,11.1,6.2,22.5,17.5,29c6,3.4,3.7,9.6,3.1,14.5c-0.8,5.8-7.3,11.2-12.6,10.8c-7-0.6-14.5,0-19.5-7.3
	c-3.5-5.1-8.9-8.9-13.3-13.4c-6-6.1-6.6-5.8-12.6-0.1c-8.6,8.3-17.3,16.4-26.6,23.9c-10.2,8.3-21.2,5-31.6-0.1
	c-3.3-1.7-6.4-3.7-9.2-6c-7.2-5.7-11-13.2-10.8-22.5c0.1-3,0.4-5.9,0.5-8.9L765.1,229.9z M819.2,177.1c-7.2,11.5-8.7,24-8.6,39.1
	c13.2-9.2,18.9-20.7,24.3-32.7C830.3,179,825.6,176.6,819.2,177.1z"/>
<path id="M" d="M222.2,104c-4.8,4.8-8.7,7.9-11.6,11.8c-9.2,12.4-22.5,19.5-35,27.5c-9.5,6.1-19.4,11.4-29,17.5
	c-9.8,6.2-19.7,6-30.6,3.1c-21.2-5.8-35.5-20-48-36.8c-3.7-5-7.7-9.8-11.3-14.3c-5.4,1.5-5.8,5.2-6.5,8.8
	c-2.3,14.1-5.9,27.9-4.8,42.5c0.4,5.5-1.7,11.2-1.9,16.8c-0.2,9.2,0.1,18.4,0.4,27.7c0.1,3.6,1.3,7.2,1.4,10.9
	c0.2,17.2,4.7,33.4,10.2,49.5c1.9,5.7,1.9,12.1,2.9,19.1c-8.1,1.5-15,4.1-21.6,3.4c-5.8-0.6-11.8-4.3-16.5-8.1
	c-4.5-3.6-8.2-8.3-9-15c-0.7-5.8-3.3-11.3-4.7-17c-7.7-31.3-7.3-63.1-5.9-95c0.8-19.1,4.9-37.5,9-56c4.1-18.3,6.8-37,10.6-55.5
	c1.1-4.9,3.1-9.5,5.8-13.7c1-1.7,4.3-2.7,6.7-2.9c13.6-1.1,27.9,8.1,34.4,21.2c6,12.2,12,24.4,18.8,36.2c6.5,11.2,14,21.8,21.2,32.5
	c5.7,8.3,8.4,8.9,17.4,4.3c19.8-10.2,39.2-21.2,53.8-38.8c6.1-7.4,11.8-15.2,18-22.6c9.2-10.9,19-21.3,27.9-32.5
	c6.1-7.6,14-7.6,21.7-5.5c6.1,1.8,11.8,4.7,16.7,8.6c5.1,3.9,7.9,9.2,9.7,16.4c3.8,14.7,0.1,28.4-1.9,42.3
	c-2.7,18.9-2.5,37.7-1.8,56.6c0.5,12.3,1.3,24.6,2.2,36.8c1.5,19.2,3.2,38.3,4.6,57.5c0.4,4.3,0.2,8.6-0.6,12.8
	c-2.1,9.4-8.4,13.2-17.7,11c-7.7-1.8-15.6-2.9-21.2-9.9c-3.8-4.7-6.6-9.5-6.2-15.3c1.4-21.1-1.5-41.8-3.8-62.6
	c-1.4-12.2-1.2-24.6-1.8-36.9C223.5,128.7,222.9,117.3,222.2,104z"/>
</svg>
