<?xml version="1.0" encoding="utf-8"?>
<!-- Generator: Adobe Illustrator 22.0.1, SVG Export Plug-In . SVG Version: 6.00 Build 0)  -->
<svg version="1.1" id="my_name_is" xmlns="http://www.w3.org/2000/svg" xmlns:xlink="http://www.w3.org/1999/xlink" x="0px"
	 y="0px" viewBox="0 0 1950.5 283.1" style="enable-background:new 0 0 1950.5 283.1;" xml:space="preserve">
<path d="M1779.3,83.7c-10.6,8.9-17.8,19.8-25.7,29.9c-3.1,4-1.6,7.6,2.2,10.2c2.7,1.9,5.6,3.6,8.6,4.9c13.9,5.8,22.9,16.5,30.6,28.8
	c6.5,10.6,5.6,21.9,2.5,32.9c-2.3,8.1-9.4,12.7-17.9,14.1c-11.8,1.9-23.7,3.9-35.5-0.8c-3.6-1.4-7.8-1.2-11.8-1.7
	c-5.1,6.3-4.8,13.4-2.1,19.1c3.2,6.8,1.4,13.1,0.7,19.5c-0.2,2-2.8,4.4-4.9,5.5c-2.6,1.4-13.3-3.1-15-5.9
	c-6.9-11.3-14.2-22.3-17-35.6c-3.2-15.4-0.8-29.1,10.5-40.4c1.7-1.7,4.8-3.6,6.7-3.1c6.3,1.7,12.9,3.5,18.5,6.9
	c5.7,3.5,10.9,5.9,17.7,4.5c3.5-0.7,7.3-0.1,10.9-0.6c5.6-0.9,7-3.8,5.1-9.3c-2.2-6.5-6.2-9.6-13.2-11.7c-11-3.2-21.6-7.9-31.3-14.1
	c-9.4-6.2-14.9-20.3-6.5-33.6c8.3-13.2,15-27.3,26.4-38.4c3.7-3.6,6.1-8.7,10.2-11.7c10.8-8,22.2-3.9,33.1,0.4
	c11.7,4.7,22.1,12.3,30.2,22.1c2.3,2.7,4,6,4.7,9.5c1.5,7.8-2.9,12.1-10.9,11c-6.2-0.9-12.4-2.2-17.5-6.7
	C1786.1,87,1782.6,85.7,1779.3,83.7z"/>
<path d="M1659.3,202.4c-0.8,2.7-1.7,5.3-2.8,7.9c-3.1,6.3-6.1,7.5-12.9,6.2c-14.1-2.7-23.5-10.5-29.8-23.6c-4.6-9.7-8.9-19.5-9.2-30
	c-0.3-11.8,0.2-23.9,6.2-34.7c3-5.5,7.6-7.6,13.5-5.6c7.4,2.6,14.8,5.7,20,12.3c3.6,4.2,4.2,10.1,1.7,15c-6,12-4.5,23.8,0.1,35.6
	c1.2,3.2,3.9,6,6,8.7C1654.4,197,1656.9,199.7,1659.3,202.4z"/>
<path d="M1628.9,63.5c-0.7-15.5,4.1-28.8,16.5-38.7c3.2-2.6,7.3-4.2,11.1-6.1c1.1-0.5,3-0.8,3.7-0.2c7.2,5.7,16.4,9,21,17.8
	c3.3,6.3,2.9,8.9-3,13.4c-11.3,8.8-14.9,24.2-8.7,37.1c0.6,1.2,1.1,2.4,1.5,3.7c1.3,4.3,4.3,8.8,0.4,13.1
	c-2.7,2.9-14.3,3.2-17.9,0.6c-6.6-4.6-12.3-9.9-16-17.2c-1.1-2.4-2.5-4.7-4.1-6.8C1629.5,75.2,1627.6,69.8,1628.9,63.5z"/>
<path d="M1376.8,162.3c3.6,1.5,7.3,4,11.2,4.4c15.7,1.5,30.5-0.7,42.1-13.2c1.2-1.3,3.4-2.8,5-2.7c8.6,0.5,17.3,0.7,22.9,9.1
	c3.7,5.6,4,11.3,0.6,16.6c-12.5,19.3-30.6,27.3-53.1,26.6c-2,0.1-4-0.2-5.9-0.7c-17.8-6-36.8-9.4-52.5-20.8
	c-13.7-10-26.8-20.6-35.5-35.4c-4.4-7.3-5.2-16.1-2.4-24.1c6.8-19.5,16.4-37.6,30.4-53.1c12.5-13.8,27.3-20.4,46-19.5
	c12.6,0.6,25.6-1.3,37.1,5.1c7.7,4.3,15.5,9.3,21.6,15.5c9.4,9.6,6.2,21.4,1.2,31.8c-8.4,17.4-21.3,32.2-37.3,43
	c-6.8,4.5-14.8,7.1-22.3,10.6C1382.6,156.8,1378.2,156.2,1376.8,162.3z M1405.8,87c-20.2-4.3-45,14.3-45.9,33
	c8.1,1.2,10.1,0.5,22.5-7.5C1392.3,106.2,1401.4,99.5,1405.8,87z"/>
<path d="M1160.8,114.4c-11,8.5-16.2,18.4-21.8,27.6c-10.6,17.4-17.2,36.5-21.6,56.5c-2.6,12-8.3,13.4-20.1,8.5
	c-9.5-3.9-17-9.8-20.5-19.1c-2.5-6.7-2.7-14.3-3.3-21.6c-1-12.9-0.7-25.9-2.5-38.7c-1.1-7.5-3.2-14.8-2.6-22.5
	c0.1-1.7,0.1-3.3,0.2-5c1.3-11.1,8.8-15.3,19.2-10.9c10,4.2,14.2,7.8,21.6,18.7c4.1-4.9,8.1-9.5,11.9-14.3
	c7.9-10,17.5-16.9,30.5-18.9c7.3-1.1,14.7,0.3,21.1,4c7.5,4.2,14.9,8.8,22.4,13.3c6.6-6.6,13.2-13.5,20.2-19.9
	c8.7-7.8,18.2-8.3,28.3-2.2c2.8,1.8,5.7,3.5,8.7,4.9c13.2,5.5,18.1,16.8,20.4,29.6c0.9,4.9,0.5,10,0.8,14.9
	c0.8,12.6,1.6,25.1,2.4,37.7c0.4,7.9,1.3,15.9,0.9,23.8c-0.4,9.9-6.7,13.9-16.1,11.8c-3.7-0.9-7.7-0.8-12.1-1.2
	c-3.1-4.3-6.9-8.9-10-13.9c-1.3-2.1-1.6-4.9-1.8-7.4c-0.8-16.9-1.4-33.9-2.1-50.8c-0.1-0.6-0.4-1.2-0.7-1.8c-0.6,0-1.6-0.3-1.7-0.1
	c-10.8,14.3-21.2,28.9-27.6,45.8c-2.2,5.7-2.6,12.2-3.2,18.4c-0.9,8.8-6.6,13.2-15,10.6c-5.4-1.6-10.6-3.8-15.8-6
	c-1.5-0.7-2.7-1.8-3.5-3.2c-3.6-7.1-6.5-14.5-6-22.8c0.6-11.2,1-22.5,1.1-33.8C1162.7,123.1,1161.7,119.7,1160.8,114.4z"/>
<path d="M994.3,170c-4.3,7.3-8.8,12.9-11,19.3c-3.6,10.2-12.1,16.5-18.2,24.6c-4.7,6.1-12.8,6.3-20.4,4.6
	c-11.3-2.6-19.7-9.2-26.6-18.1c-7.3-9.4-11.1-19.8-12.5-31.9c-1.9-16.8-1.6-33.3,2.7-49.5c2-7.7,5.3-14.9,9.8-21.4
	c4.4-6.4,12.3-8.5,19.9-10.4c6.7-1.7,13.3-4,20-6c8.2-2.4,16.5-4.6,24.7-7.1c6.5-2.1,10.8,2.7,15.5,5.2c4.3,2.2,7.8,6.1,11.6,9.4
	c7,6.2,10.1,13.9,11.1,23.5c1.8,18.1,5.1,36.1,15.1,52.1c3,4.7,6.5,9.2,8.5,14.2c1.2,3.3,1.1,6.9-0.2,10.2
	c-3.4,7.2-12.6,9.4-19.5,5.3c-7.9-4.7-16.6-8.2-20.8-17.7C1002.8,173.8,998.7,172.7,994.3,170z M967.5,123
	c-11.2-0.3-15.6,1.7-17.9,9.1c-1.8,6-3,12.2-3.7,18.4c-0.4,3.7,0.4,7.6,0.8,12.5c10.7-5.3,10.1-15.8,15-22.8
	C965.2,135.5,967.9,129.5,967.5,123L967.5,123z"/>
<path d="M769.1,100.4c3.2-2.1,6.4-4.2,9.5-6.4c11.7-8.7,23.3-17.6,35.2-26c3.7-2.6,8.4-4.1,12.8-5.3c2.7-0.7,6.5-1.1,8.7,0.2
	c8.4,5.1,18.1,8.3,24.9,16c4.6,5.2,7.5,10.9,7.9,17.8c0.8,14.2,4,28.7,1.9,42.4c-2.2,14.2,1.8,27.7,0.1,41.5
	c-1,8.2-2.1,16.4-3.1,24.5c-0.6,4.8-3.8,5.6-7.9,5.6c-18.6-0.1-32.1-14.2-31-32.7c0.7-11.5,2.2-23.1,2.4-34.6
	c0.2-10.9-0.7-21.8-1.2-33.2c-7.3,1-12.1,4.9-16.7,9.1c-23.1,21.1-36.6,47.6-44.4,77.5c-1.3,4.8-2.8,9.6-4.4,14.3
	c-1.2,3.6-3.8,5.5-7.6,4.9c-11.6-1.7-22.6-3.9-29.8-15.1c-2.7-4.1-4-9-3.8-13.9c0.1-21.2-0.2-42.3,0.5-63.5
	c0.4-12.9,2.4-25.8,3.4-38.7c0.5-6.3,0.4-12.6,0.3-18.9c0-7.3,5.7-15.4,12.5-17.3c0.6-0.2,1.5-0.5,1.9-0.2
	c7.6,3.9,15.6,7.4,22.8,12.1c5.1,3.3,4,9.6,4,14.8c0,5.6-0.9,11.2-1.3,16.9c-0.2,2.2,0,4.4,0,6.7L769.1,100.4z"/>
<path d="M547.4,76.8c-0.6,6.6-3.2,12.9-7.3,18.2c-6.7,9-11.4,19.4-17.4,28.9c-7.7,12.3-16.1,24.3-23.8,36.7
	c-11.3,18.1-22.6,36.1-33.3,54.5c-4.5,7.8-8.6,15.8-8.2,25.9c0.4,10.7-9.4,15.8-19.7,12.2c-8.4-2.9-13-8.6-17.4-16.4
	c-6.4-11.4-4.8-20.9,0.5-31.8c6.5-13.3,11.7-27.3,17.8-41.7c-1.3-1.1-3.3-2.7-5.2-4.4c-3.5-3.1-7.5-5.8-10.1-9.5
	c-12.1-16.8-19.2-36.7-20.2-57.4c0-4,0.8-8,2.5-11.6c2.6-6.2,8.9-8.7,15.3-6.1c6.1,2.4,11.8,6,17.9,8.4c7.1,2.8,8.5,8.3,7.2,14.5
	c-3,14.5,4.3,25.5,11.6,38c2.4-2.5,4.6-4,5.9-6c12-18.2,23.7-36.7,35.9-54.8c10.7-15.9,23.7-17.9,38.8-6.2
	C541.2,70.7,544.2,73.8,547.4,76.8z"/>
<path d="M276.7,107.7c4.1-3.4,8-6.5,11.7-9.7c5.5-4.7,10.3-10.9,16.5-14c8.9-4.5,18.9-6.5,28.6-1c5.2,2.8,10.2,6.1,15,9.6
	c7.4,5.7,11.3,13.7,13.7,22.6c4,15,3.8,30.3,3.2,45.6c-0.4,9.6-0.4,19.3-1.7,28.8c-0.7,5-3.2,10-5.8,14.5c-1.9,3.4-5.6,4.1-9.7,2.9
	s-8.3-1.6-13.3-2.5c-3.6-5-8.5-10.2-11.3-16.3c-1.9-4.2-1.2-9.7-1.1-14.6c0.3-12,1-23.9,1.2-35.9c0.1-4.1-1-8.2-1.7-12.9
	c-9.6,2.7-13.2,9.9-17.5,15.8c-6.9,9.4-11.5,20.3-13.5,31.8c-2,11-5.6,21.8-8.8,32.6c-1.6,5.4-5.6,7.6-11.4,6.8
	c-3.6-0.5-7.2-1-10.8-1.6c-12.4-2.4-19.1-11.1-19.2-23.8c-0.1-11.3-0.5-22.5-1.2-33.8c-0.2-3.8-1.7-7.6-2.6-11.3
	c-7-0.5-10,4.2-12.7,7.9c-3.7,5.1-6.8,10.7-9,16.6c-3.4,8.9-5.4,18.4-8.9,27.2c-2.4,6.1-5.4,11.9-6.3,18.7c-0.3,2.2-5.3,5.2-8.4,5.5
	c-13.1,1.4-26.5-6.9-30.3-19.4c-2.1-7.3-2.9-14.9-2.5-22.5c0.6-15.9,2.3-31.8,3.5-47.6c0.1-1.9,0.2-4.2-0.6-5.8
	c-2.6-5.3-1.3-9.1,2.8-13.2s8.4-4.4,13.6-2.5c5,1.8,10.3,2.6,15.2,4.6s8.7,1.4,13.2-1.1c9.8-5.5,20-10.2,29.7-15.9
	c8.4-4.8,15.6-0.9,22.6,2.5C265,98.9,270.1,103.2,276.7,107.7z"/>
</svg>
